<svg width="20" height="20" viewBox="0 0 20 20" fill="none" xmlns="http://www.w3.org/2000/svg">
<path fill-rule="evenodd" clip-rule="evenodd" d="M12.0576 3.68203C12.7841 3.58913 13.5075 3.889 14.2269 4.5659L14.2279 4.56684C14.9495 5.2493 15.2928 5.95629 15.2416 6.68857C15.1924 7.39232 14.7853 7.97983 14.3375 8.45288C14.3375 8.45294 14.3376 8.45282 14.3375 8.45288L9.50705 13.5658C9.36073 13.7249 9.16719 13.8566 8.98762 13.9527C8.80531 14.0501 8.59149 14.1353 8.38696 14.1717L8.38335 14.1723L6.48845 14.4959C6.48828 14.496 6.48862 14.4959 6.48845 14.4959C6.00231 14.5796 5.52818 14.4588 5.18842 14.1366C4.84909 13.8148 4.70286 13.3488 4.75713 12.8603L4.75732 12.8586L4.97631 10.941C5.00347 10.7372 5.07828 10.521 5.16444 10.3362C5.25023 10.1523 5.36901 9.95309 5.51298 9.79983L5.51403 9.79871L10.3475 4.68261C10.7955 4.20937 11.3594 3.77131 12.0576 3.68203ZM11.1346 5.42698C11.1346 5.42699 11.1347 5.42696 11.1346 5.42698L6.30256 10.5416C6.30245 10.5417 6.30268 10.5414 6.30256 10.5416C6.264 10.5828 6.20306 10.6723 6.14626 10.7941C6.09083 10.9129 6.05971 11.0185 6.05077 11.0803L5.83384 12.9799C5.83381 12.9802 5.83386 12.9797 5.83384 12.9799C5.81181 13.1798 5.87442 13.2942 5.93388 13.3506C5.99288 13.4065 6.10777 13.4623 6.30439 13.4284L8.19734 13.105C8.19778 13.105 8.19822 13.1049 8.19867 13.1048C8.25925 13.0938 8.36267 13.0583 8.47683 12.9973C8.59305 12.9352 8.67446 12.8711 8.71022 12.8318L8.71669 12.8248L13.5503 7.7087C13.9384 7.29868 14.138 6.94094 14.1609 6.61303C14.1818 6.31364 14.063 5.90219 13.484 5.35444C12.9085 4.81306 12.4928 4.71854 12.195 4.75662C11.8687 4.79834 11.5226 5.01714 11.1346 5.42698Z" fill="#FF8F36"/>
<path fill-rule="evenodd" clip-rule="evenodd" d="M9.85118 5.37323C10.1468 5.32718 10.4237 5.52947 10.4698 5.82506C10.6847 7.20486 11.8046 8.2612 13.1975 8.40149C13.4951 8.43147 13.7121 8.69706 13.6821 8.99471C13.6521 9.29236 13.3865 9.50935 13.0889 9.47937C11.2084 9.28997 9.6907 7.86184 9.39936 5.99183C9.3533 5.69624 9.55559 5.41929 9.85118 5.37323Z" fill="#FF8F36"/>
<path fill-rule="evenodd" clip-rule="evenodd" d="M4.15918 15.8874C4.15918 15.5882 4.40169 15.3457 4.70085 15.3457H15.2981C15.5972 15.3457 15.8397 15.5882 15.8397 15.8874C15.8397 16.1865 15.5972 16.429 15.2981 16.429H4.70085C4.40169 16.429 4.15918 16.1865 4.15918 15.8874Z" fill="#FF8F36"/>
</svg>
