<svg width="32" height="32" viewBox="0 0 32 32" fill="none" xmlns="http://www.w3.org/2000/svg">
<path fill-rule="evenodd" clip-rule="evenodd" d="M16 3C16 3 18.6442 3 21.0605 4.02201C21.0605 4.02201 23.3936 5.00884 25.1924 6.80761C25.1924 6.80761 26.9912 8.60638 27.978 10.9395C27.978 10.9395 29 13.3558 29 16C29 16 29 18.6442 27.978 21.0605C27.978 21.0605 26.9912 23.3936 25.1924 25.1924C25.1924 25.1924 23.3936 26.9912 21.0605 27.978C21.0605 27.978 18.6442 29 16 29C16 29 13.3558 29 10.9395 27.978C10.9395 27.978 8.60638 26.9912 6.80761 25.1924C6.80761 25.1924 5.00884 23.3936 4.02202 21.0605C4.02202 21.0605 3 18.6442 3 16C3 16 3 13.3558 4.02202 10.9395C4.02202 10.9395 5.00885 8.60638 6.80761 6.80761C6.80761 6.80761 8.60638 5.00884 10.9395 4.02201C10.9395 4.02201 13.3558 3 16 3ZM16 5C16 5 13.7614 5 11.7186 5.86402C11.7186 5.86402 9.74476 6.69889 8.22183 8.22182C8.22183 8.22182 6.6989 9.74476 5.86402 11.7186C5.86402 11.7186 5 13.7614 5 16C5 16 5 18.2386 5.86402 20.2814C5.86402 20.2814 6.69889 22.2552 8.22183 23.7782C8.22183 23.7782 9.74476 25.3011 11.7186 26.136C11.7186 26.136 13.7614 27 16 27C16 27 18.2386 27 20.2814 26.136C20.2814 26.136 22.2552 25.3011 23.7782 23.7782C23.7782 23.7782 25.3011 22.2552 26.136 20.2814C26.136 20.2814 27 18.2386 27 16C27 16 27 13.7614 26.136 11.7186C26.136 11.7186 25.3011 9.74476 23.7782 8.22183C23.7782 8.22183 22.2552 6.69889 20.2814 5.86402C20.2814 5.86402 18.2386 5 16 5Z" fill="#CCCCCC"/>
<path fill-rule="evenodd" clip-rule="evenodd" d="M15.2938 27.8067L15.7813 25.3318C15.7813 25.3318 15.7806 25.3355 15.7798 25.3355C15.7798 25.3355 15.7791 25.3355 15.7784 25.3329C15.7784 25.3329 15.7768 25.3273 15.7729 25.323L13.4288 22.792C13.4288 22.792 13.0199 22.3466 12.9245 21.7539C12.9245 21.7539 12.8291 21.1611 13.0759 20.6138L14.7868 16.78C14.7868 16.78 15.0391 16.1787 15.6257 15.8465C15.6257 15.8465 16.2123 15.5143 16.8796 15.6101L19.7243 15.9952C19.7243 15.9952 20.1593 16.0466 20.5283 16.2839L27.2985 20.4479C27.586 20.6248 27.7653 20.935 27.7746 21.2724L27.775 21.3C27.775 21.485 27.7237 21.6663 27.6268 21.8239C27.4878 22.0498 27.2648 22.2113 27.0068 22.2727C26.9357 22.2897 26.8629 22.2988 26.7899 22.2999L26.775 22.3C26.59 22.3 26.4086 22.2487 26.2511 22.1517L19.4669 17.9786L16.6143 17.5924L16.6132 17.595L14.8991 21.4361L17.2521 23.977C17.2521 23.977 17.5712 24.3276 17.7014 24.7835C17.7014 24.7835 17.8317 25.2393 17.7436 25.7182L17.2561 28.1932C17.2049 28.4534 17.0524 28.6826 16.8321 28.8304C16.6813 28.9316 16.5057 28.9898 16.3243 28.9988C16.3079 28.9996 16.2914 29 16.275 29C16.2101 29 16.1454 28.9937 16.0817 28.9811C15.6438 28.8949 15.3161 28.5289 15.2785 28.0841C15.2762 28.0562 15.275 28.0281 15.275 28C15.275 27.9351 15.2813 27.8704 15.2938 27.8067Z" fill="#CCCCCC"/>
<path d="M9.04549 7.34072L9.05479 7.31805C9.10118 7.20087 9.125 7.07598 9.125 6.94995C9.125 6.54868 8.88514 6.18627 8.51578 6.02946L8.4931 6.02016C8.37592 5.97377 8.25103 5.94995 8.125 5.94995C7.99663 5.94995 7.86946 5.97467 7.75044 6.02275C7.73717 6.02811 7.72402 6.03375 7.711 6.03968C7.48309 6.14333 7.30235 6.32871 7.20452 6.55918L6.07688 9.21545C5.77176 9.94799 6.05143 10.6892 6.05143 10.6892L7.48185 14.4948C7.65429 14.9842 8.04395 15.3268 8.04395 15.3268C8.43361 15.6694 8.93985 15.7776 8.93985 15.7776L11.6145 16.3525L12.095 17.3511C12.3499 17.8553 12.829 18.1548 12.829 18.1548C13.3082 18.4542 13.8875 18.4625 13.8875 18.4625H15.575C16.1273 18.4625 16.575 18.0147 16.575 17.4625C16.575 16.9102 16.1273 16.4625 15.575 16.4625H13.8875C13.8914 16.4624 13.8916 16.4615 13.8916 16.4615C13.8919 16.4605 13.889 16.4588 13.889 16.4588C13.8831 16.4551 13.88 16.4488 13.88 16.4488L13.4137 15.479C13.2158 15.0621 12.8482 14.7747 12.8482 14.7747C12.4806 14.4873 12.0232 14.3948 12.0232 14.3948L9.36567 13.8235L7.92313 9.98445L9.04549 7.34072Z" fill="#CCCCCC"/>
<path d="M9.94095 12.0867L8.90345 14.5492C8.85167 14.6721 8.825 14.8041 8.825 14.9375C8.825 14.9636 8.82602 14.9897 8.82807 15.0158C8.85738 15.3886 9.09217 15.7138 9.43673 15.859C9.55963 15.9108 9.69164 15.9375 9.825 15.9375L9.84381 15.9373C9.96675 15.935 10.0882 15.91 10.2021 15.8636C10.4477 15.7636 10.6436 15.5701 10.7465 15.3257L11.784 12.8632C11.7833 12.8649 11.7838 12.8652 11.7838 12.8652L11.7857 12.8645C11.7888 12.8625 11.7926 12.8624 11.7926 12.8624L14.4625 12.8625L14.4893 12.8621C14.9761 12.849 15.4062 12.6208 15.4062 12.6208L16.9588 11.7626C17.167 11.648 17.3413 11.4844 17.3413 11.4844L20.6953 8.45451C21.2106 7.97541 21.3217 7.29532 21.3217 7.29532C21.4327 6.61523 21.1036 6.00983 21.1036 6.00983L19.9374 3.90314C19.7612 3.58493 19.4262 3.38745 19.0625 3.38745L19.0341 3.38785C18.8744 3.39239 18.718 3.43515 18.5782 3.51256C18.26 3.68871 18.0625 4.02374 18.0625 4.38745L18.0629 4.41583C18.0674 4.57559 18.1102 4.73194 18.1876 4.87177L19.3464 6.96508C19.3485 6.96884 19.3478 6.97306 19.3478 6.97306L19.348 6.97454C19.3491 6.97535 19.3542 6.97083 19.3542 6.97083L15.9922 10.0079L15.9816 10.0176L14.4688 10.8541C14.4558 10.861 14.4413 10.8625 14.4413 10.8625L11.7824 10.8625C11.1821 10.8655 10.6815 11.197 10.6815 11.197C10.181 11.5284 9.94095 12.0867 9.94095 12.0867Z" fill="#CCCCCC"/>
</svg>
