<svg width="40" height="44" viewBox="0 0 40 44" fill="none" xmlns="http://www.w3.org/2000/svg">
<path d="M30.2235 1.52368H25.8409C22.4018 1.52368 19.5879 4.33759 19.5879 7.77669C19.5879 11.2158 22.4018 14.0297 25.8409 14.0297H26.7614V16.7651C26.7614 17.4625 27.639 17.7704 28.0746 17.2269L30.654 14.0129C33.8941 13.7888 36.4766 11.0702 36.4766 7.77669C36.4766 4.33759 33.6626 1.52368 30.2235 1.52368Z" fill="#FF8F36"/>
<path d="M27.507 18.029C27.3656 18.029 27.2221 18.0049 27.0807 17.9557C26.5687 17.7756 26.2377 17.3085 26.2377 16.765V14.5532H25.8408C22.1043 14.5532 19.0642 11.5131 19.0642 7.77662C19.0642 4.04011 22.1043 1 25.8408 1H30.2235C33.96 1 37.0001 4.04011 37.0001 7.77662C37.0001 11.245 34.3496 14.1605 30.923 14.5155L28.483 17.5546C28.2369 17.8614 27.8798 18.029 27.507 18.029ZM25.8408 2.04723C22.6813 2.04723 20.1114 4.61713 20.1114 7.77662C20.1114 10.9361 22.6813 13.506 25.8408 13.506H26.7613C27.0504 13.506 27.285 13.7406 27.285 14.0296V16.765C27.285 16.8969 27.375 16.9483 27.4284 16.9671C27.4818 16.986 27.5845 17.0017 27.6672 16.899L30.2465 13.6851C30.3376 13.5709 30.4727 13.5008 30.6183 13.4903C33.6092 13.284 35.9529 10.7738 35.9529 7.77557C35.9529 4.61608 33.383 2.04618 30.2235 2.04618H25.8408V2.04723Z" fill="#FF8F36"/>
<path d="M13.6803 38.1872H11.6581C11.0747 38.1872 10.5187 37.7704 10.3365 37.1965L5.46265 21.8274H9.9385L14.6751 36.764C14.9097 37.5055 14.4332 38.1872 13.6792 38.1872H13.6803Z" fill="white"/>
<path d="M13.6805 38.7108H11.6583C10.853 38.7108 10.0864 38.14 9.83718 37.3546L4.96337 21.9855C4.91311 21.8263 4.94138 21.6524 5.03982 21.5184C5.13826 21.3833 5.29535 21.3037 5.46186 21.3037H9.93771C10.166 21.3037 10.3681 21.4514 10.4372 21.6692L15.1739 36.6058C15.3393 37.1284 15.2608 37.6667 14.9571 38.0803C14.6639 38.4814 14.1978 38.7108 13.6784 38.7108H13.6805ZM6.17921 22.3499L10.8362 37.0373C10.9493 37.3944 11.3033 37.6625 11.6583 37.6625H13.6805C13.8648 37.6625 14.0188 37.5913 14.1141 37.4604C14.2177 37.3179 14.2408 37.1221 14.1769 36.921L9.55652 22.3499H6.17921Z" fill="#FF8F36"/>
<path d="M6.31572 24.0274C8.31008 23.5567 9.54524 21.5583 9.07453 19.564C8.60382 17.5696 6.60548 16.3345 4.61111 16.8052C2.61675 17.2759 1.38159 19.2742 1.8523 21.2686C2.32301 23.2629 4.32135 24.4981 6.31572 24.0274Z" fill="white"/>
<path d="M5.46393 24.6486C3.12965 24.6486 1.22998 22.7499 1.22998 20.4146C1.22998 18.0793 3.12861 16.1807 5.46393 16.1807C7.79925 16.1807 9.69787 18.0793 9.69787 20.4146C9.69787 22.7499 7.79925 24.6486 5.46393 24.6486ZM5.46393 17.2289C3.70668 17.2289 2.27721 18.6584 2.27721 20.4157C2.27721 22.1729 3.70668 23.6024 5.46393 23.6024C7.22118 23.6024 8.65064 22.1729 8.65064 20.4157C8.65064 18.6584 7.22118 17.2289 5.46393 17.2289Z" fill="#FF8F36"/>
<path d="M23.7218 23.1071C25.5425 22.6352 26.6359 20.7767 26.1641 18.956C25.6922 17.1353 23.8337 16.0419 22.013 16.5137C20.1923 16.9856 19.0988 18.8441 19.5707 20.6648C20.0426 22.4855 21.9011 23.579 23.7218 23.1071Z" fill="white"/>
<path d="M22.8665 23.7407C20.6997 23.7407 18.9373 21.9782 18.9373 19.8115C18.9373 17.6448 20.6997 15.8823 22.8665 15.8823C25.0332 15.8823 26.7957 17.6448 26.7957 19.8115C26.7957 21.9782 25.0332 23.7407 22.8665 23.7407ZM22.8665 16.9285C21.2768 16.9285 19.9845 18.2218 19.9845 19.8105C19.9845 21.3991 21.2778 22.6925 22.8665 22.6925C24.4551 22.6925 25.7484 21.3991 25.7484 19.8105C25.7484 18.2218 24.4551 16.9285 22.8665 16.9285Z" fill="#FF8F36"/>
<path d="M20.9286 28.0079C21.9727 28.653 23.3194 27.899 23.3194 26.6716V14.1593C23.3194 12.932 21.9727 12.1769 20.9286 12.8231C18.0822 14.5835 12.8461 17.0361 6.04956 16.7816V24.0494C12.8461 23.7949 18.0822 26.2475 20.9286 28.0079Z" fill="white"/>
<path d="M21.7493 28.7695C21.3713 28.7695 20.9932 28.6637 20.6529 28.4532C17.574 26.5493 12.5442 24.3292 6.06915 24.5722C5.92672 24.5774 5.78849 24.525 5.68586 24.4256C5.58323 24.3271 5.52563 24.191 5.52563 24.0486V16.7808C5.52563 16.6384 5.58323 16.5022 5.68586 16.4038C5.78849 16.3053 5.92672 16.253 6.06915 16.2572C12.5452 16.4991 17.574 14.28 20.6529 12.3761C21.3053 11.9719 22.0959 11.9552 22.7672 12.329C23.4406 12.7039 23.8417 13.3878 23.8417 14.1585V26.6708C23.8417 27.4416 23.4395 28.1254 22.7672 28.5003C22.4457 28.6794 22.097 28.7684 21.7483 28.7684L21.7493 28.7695ZM7.04307 23.5071C13.294 23.5071 18.1636 25.6822 21.2037 27.5631C21.5294 27.7641 21.9231 27.7725 22.2572 27.5861C22.5934 27.3986 22.7944 27.0562 22.7944 26.6719V14.1596C22.7944 13.7742 22.5934 13.4328 22.2572 13.2453C21.9221 13.0589 21.5283 13.0673 21.2037 13.2684C18.0871 15.1953 13.0489 17.4332 6.57286 17.3201V23.5113C6.72995 23.5082 6.88703 23.5071 7.04307 23.5071Z" fill="#FF8F36"/>
<path d="M11.9529 24.4486V16.3818C11.9529 15.8549 11.5257 15.4277 10.9989 15.4277H6.66542C6.13853 15.4277 5.7114 15.8549 5.7114 16.3818L5.7114 24.4486C5.7114 24.9755 6.13853 25.4026 6.66542 25.4026H10.9989C11.5257 25.4026 11.9529 24.9755 11.9529 24.4486Z" fill="#FF8F36"/>
<path d="M10.9994 25.9261H6.6649C5.85015 25.9261 5.18726 25.2632 5.18726 24.4485V16.3817C5.18726 15.5669 5.85015 14.9041 6.6649 14.9041H10.9994C11.8141 14.9041 12.477 15.5669 12.477 16.3817V24.4485C12.477 25.2632 11.8141 25.9261 10.9994 25.9261ZM6.6649 15.9513C6.42718 15.9513 6.23448 16.144 6.23448 16.3817V24.4485C6.23448 24.6862 6.42718 24.8789 6.6649 24.8789H10.9994C11.2371 24.8789 11.4298 24.6862 11.4298 24.4485V16.3817C11.4298 16.144 11.2371 15.9513 10.9994 15.9513H6.6649Z" fill="#FF8F36"/>
<path d="M32.1724 38.7108H12.4059C12.1169 38.7108 11.8823 38.4762 11.8823 38.1872C11.8823 37.8982 12.1169 37.6636 12.4059 37.6636H32.1724C32.4614 37.6636 32.696 37.8982 32.696 38.1872C32.696 38.4762 32.4614 38.7108 32.1724 38.7108Z" fill="#FF8F36"/>
<path d="M28.6296 3.82959H27.4347C27.1823 3.82959 27.0033 4.15318 27.0336 4.53228L27.3593 8.63428C27.3719 8.79764 27.5091 8.92645 27.6641 8.92645H28.4003C28.5563 8.92645 28.6924 8.79869 28.705 8.63428L29.0307 4.53228C29.0611 4.15423 28.882 3.82959 28.6296 3.82959Z" fill="white"/>
<path d="M28.0312 9.95605C27.5066 9.95605 27.0762 10.3854 27.0762 10.9111C27.0762 11.4358 27.5055 11.8662 28.0312 11.8662C28.5559 11.8662 28.9863 11.4368 28.9863 10.9111C28.9863 10.3865 28.557 9.95605 28.0312 9.95605Z" fill="white"/>
</svg>
