<svg width="20" height="20" viewBox="0 0 20 20" fill="none" xmlns="http://www.w3.org/2000/svg">
<path fill-rule="evenodd" clip-rule="evenodd" d="M9.60008 4.45841C6.76042 4.45841 4.45841 6.76042 4.45841 9.60008C4.45841 12.4397 6.76042 14.7417 9.60008 14.7417C11.0016 14.7417 12.2722 14.181 13.1997 13.2715C14.1513 12.3384 14.7417 11.0382 14.7417 9.60008C14.7417 6.76042 12.4397 4.45841 9.60008 4.45841ZM14.1632 13.5853C15.0943 12.5201 15.6584 11.126 15.6584 9.60008C15.6584 6.25416 12.946 3.54175 9.60008 3.54175C6.25416 3.54175 3.54175 6.25416 3.54175 9.60008C3.54175 12.946 6.25416 15.6584 9.60008 15.6584C11.0901 15.6584 12.4544 15.1205 13.5095 14.2284L15.6814 16.3295C15.8633 16.5055 16.1535 16.5007 16.3295 16.3188C16.5055 16.1368 16.5007 15.8467 16.3188 15.6707L14.1632 13.5853Z" fill="#C8C6C5"/>
</svg>
