<svg width="60" height="60" viewBox="0 0 60 60" fill="none" xmlns="http://www.w3.org/2000/svg">
<g clip-path="url(#clip0_92_2240)">
<path d="M54.8527 51.2233H31.3425V49.9293H54.8527C54.9244 49.9293 54.9835 49.8689 54.9835 49.7956V33.2412C54.9835 33.1679 54.9244 33.1075 54.8527 33.1075H31.047C31.047 33.1075 31.0217 33.1075 31.0132 33.1118C30.9963 33.4008 30.9794 34.0305 30.9625 34.9881C30.9625 35.1434 30.9583 35.2469 30.9541 35.2641L29.6876 35.2038V34.9579C29.7383 32.6848 29.7509 32.6632 29.8734 32.4691C30.114 32.0594 30.5573 31.8092 31.047 31.8092H54.8527C55.6252 31.8092 56.25 32.4519 56.25 33.2369V49.7913C56.25 50.5806 55.6252 51.219 54.8527 51.219V51.2233Z" fill="black"/>
<path d="M51.6822 28.6044C51.6822 28.1903 51.6653 27.772 51.6316 27.3622L52.8938 27.2587C52.9276 27.6986 52.9487 28.1515 52.9487 28.6001H51.6822V28.6044ZM51.4838 26.1286C51.4205 25.7231 51.3403 25.3134 51.2432 24.9122L52.4717 24.606C52.573 25.0416 52.6616 25.4816 52.7334 25.9216L51.4838 26.1286ZM50.9097 23.7175C50.783 23.325 50.6395 22.9368 50.4833 22.5529L51.6527 22.0525C51.8216 22.4623 51.9777 22.885 52.1128 23.312L50.9097 23.7175ZM49.9725 21.4314C49.7867 21.0648 49.5883 20.7025 49.373 20.3531L50.4495 19.6716C50.6775 20.0512 50.897 20.4437 51.0954 20.8405L49.9683 21.4314H49.9725ZM48.6933 19.3179C48.4527 18.9858 48.1994 18.658 47.9377 18.3474L48.896 17.502C49.1788 17.8385 49.4532 18.1921 49.715 18.5545L48.6933 19.3222V19.3179ZM47.106 17.4373C46.8189 17.144 46.515 16.8637 46.211 16.5962L47.03 15.6085C47.3635 15.8975 47.6886 16.2037 47.9968 16.5186L47.106 17.4373ZM45.2527 15.8285C44.9234 15.5869 44.5815 15.354 44.2395 15.1426L44.8981 14.0384C45.2696 14.2714 45.6411 14.5215 45.9957 14.7803L45.2569 15.8285H45.2527ZM43.1757 14.5388C42.8168 14.3533 42.4453 14.1808 42.0696 14.0212L42.5509 12.8221C42.9562 12.9903 43.3572 13.1801 43.7498 13.3828L43.1799 14.5388H43.1757ZM40.9256 13.5942C40.5414 13.4691 40.1446 13.3569 39.7562 13.2621L40.0475 12.0026C40.4696 12.1061 40.9002 12.2269 41.314 12.3606L40.9256 13.5942ZM38.5615 13.0248C38.1604 12.9644 37.7551 12.917 37.3541 12.8868L37.447 11.5971C37.8818 11.6316 38.3208 11.6791 38.7514 11.7481L38.5615 13.0248ZM34.9224 12.8954L34.8211 11.6058C35.2602 11.5712 35.6992 11.5497 36.134 11.5497V12.8437C35.7372 12.8437 35.3277 12.8609 34.9224 12.8954Z" fill="black"/>
<path d="M21.8481 32.9867C17.6602 32.9867 14.017 29.0875 13.084 23.6571C12.4845 23.3551 11.8344 22.7297 11.5304 21.4271C11.1927 19.9908 11.3193 18.9599 11.9062 18.3603C12.1257 18.1361 12.4043 17.9851 12.7125 17.9247C12.4592 16.6954 12.5267 15.4057 12.9236 14.2282C14.266 10.2039 17.1874 8.25 21.8481 8.25C26.5087 8.25 29.5736 10.3031 30.8739 14.5345C31.1652 15.4748 31.2496 16.4884 31.1272 17.4977C31.3805 17.5796 31.6084 17.7263 31.7942 17.9333C32.1995 18.3819 32.5878 19.3179 32.1404 21.2157C31.8237 22.5572 31.0596 23.2732 30.6248 23.5837C29.7129 29.053 26.057 32.9867 21.8438 32.9867H21.8481ZM13.0587 19.1799C12.9616 19.1799 12.8687 19.2014 12.8011 19.2704C12.6154 19.4602 12.5098 20.0468 12.7631 21.1208C12.9531 21.9188 13.3119 22.4062 13.8397 22.5701L14.2196 22.6909L14.2787 23.092C15.0133 28.0739 18.2006 31.6884 21.8523 31.6884C25.504 31.6884 28.6913 28.0695 29.4259 23.0834L29.4765 22.7383L29.7847 22.5917C29.81 22.5787 30.6163 22.156 30.9119 20.9052C31.1947 19.7061 31.0723 19.0289 30.8654 18.8003C30.8232 18.7529 30.7472 18.6925 30.6079 18.714C30.3673 18.7529 30.1309 18.6666 29.9662 18.4897C29.8058 18.3129 29.7383 18.0714 29.7847 17.8341C29.9915 16.8464 29.9493 15.8328 29.6623 14.914C28.5351 11.2434 26.0486 9.53536 21.8438 9.53536C17.6391 9.53536 15.2792 11.1572 14.1141 14.6337C13.7257 15.7896 13.7214 17.0707 14.1014 18.2482C14.1816 18.5027 14.1225 18.783 13.9494 18.9771C13.7721 19.1712 13.5061 19.2532 13.2486 19.1928C13.1895 19.1799 13.122 19.1669 13.0544 19.1669L13.0587 19.1799Z" fill="black"/>
<path d="M46.5403 33.9701V30.4073C46.5403 30.2305 46.401 30.0882 46.2279 30.0882H40.5203C40.3472 30.0882 40.2079 30.2305 40.2079 30.4073V33.9701H38.097V30.4073C38.097 29.04 39.182 27.9315 40.5203 27.9315H46.2279C47.5661 27.9315 48.6511 29.04 48.6511 30.4073V33.9701H46.5403Z" fill="#0066FF"/>
<path d="M30.5193 33.2886C29.8185 33.0385 29.0966 32.8444 28.3493 32.7107C28.3409 32.7107 28.3325 32.7063 28.3198 32.7063C28.2565 32.6934 28.1931 32.6805 28.1298 32.6761H28.0918C26.399 34.2246 24.1615 35.1735 21.713 35.1735C20.4845 35.1735 19.3151 34.9363 18.2428 34.505C17.1621 34.0737 16.1784 33.4482 15.3341 32.6761C15.2708 32.6891 15.199 32.6977 15.1357 32.7107C8.92148 33.8192 4.15105 39.1763 3.75 45.7368C3.91464 45.8834 4.07929 46.0344 4.24815 46.1767C8.4571 49.8387 13.7172 51.9652 19.2011 52.4137C19.9146 52.4698 20.6365 52.5 21.3584 52.5C21.3584 52.5 23.5156 52.4741 24.2291 52.4137C26.4623 52.2369 28.666 51.7797 30.7726 51.0551C31.0132 50.9731 31.258 50.8825 31.4945 50.7919C34.3018 49.7352 36.9319 48.1867 39.2369 46.1767C39.4058 46.0344 39.5704 45.8834 39.735 45.7368C39.3804 39.9699 35.6527 35.1304 30.5193 33.2886Z" fill="#0066FF"/>
</g>
<defs>
<clipPath id="clip0_92_2240">
<rect width="52.5" height="44.25" fill="white" transform="translate(3.75 8.25)"/>
</clipPath>
</defs>
</svg>
