<svg width="33" height="32" viewBox="0 0 33 32" fill="none" xmlns="http://www.w3.org/2000/svg">
<path d="M7.88042 14.9332H4.27561C3.92173 14.9332 3.63452 14.646 3.63452 14.2922V4.02585C3.63452 3.67197 3.92173 3.38477 4.27561 3.38477H28.1092C28.4631 3.38477 28.7503 3.67197 28.7503 4.02585V14.2922C28.7503 14.646 28.4631 14.9332 28.1092 14.9332H7.88042Z" fill="#472D19"/>
<path d="M28.1093 15.3178H4.27573C3.7103 15.3178 3.25 14.8575 3.25 14.292V4.02573C3.25 3.4603 3.7103 3 4.27573 3H28.1093C28.6747 3 29.135 3.4603 29.135 4.02573V14.292C29.135 14.8575 28.6747 15.3178 28.1093 15.3178ZM4.27573 3.7693C4.13405 3.7693 4.0193 3.88405 4.0193 4.02573V14.292C4.0193 14.4337 4.13405 14.5485 4.27573 14.5485H28.1093C28.251 14.5485 28.3657 14.4337 28.3657 14.292V4.02573C28.3657 3.88405 28.251 3.7693 28.1093 3.7693H4.27573Z" fill="white"/>
<path d="M24.2972 10.3129H25.5909C25.9448 10.3129 26.232 10.0257 26.232 9.67179V8.6467C26.232 8.29282 25.9448 8.00562 25.5909 8.00562H6.79367C6.43979 8.00562 6.15259 8.29282 6.15259 8.6467V9.67179C6.15259 10.0257 6.43979 10.3129 6.79367 10.3129H24.2965H24.2972Z" fill="white"/>
<path d="M25.591 10.6974H6.7938C6.22836 10.6974 5.76807 10.2371 5.76807 9.67168V8.64658C5.76807 8.08115 6.22836 7.62085 6.7938 7.62085H25.591C26.1565 7.62085 26.6168 8.08115 26.6168 8.64658V9.67168C26.6168 10.2371 26.1565 10.6974 25.591 10.6974ZM6.7938 8.39015C6.65212 8.39015 6.53737 8.5049 6.53737 8.64658V9.67168C6.53737 9.81336 6.65212 9.92811 6.7938 9.92811H25.591C25.7327 9.92811 25.8475 9.81336 25.8475 9.67168V8.64658C25.8475 8.5049 25.7327 8.39015 25.591 8.39015H6.7938Z" fill="white"/>
<path d="M23.6565 9.30371H8.72946C8.3754 9.30371 8.08838 9.59073 8.08838 9.94479V27.8592C8.08838 28.2133 8.3754 28.5003 8.72946 28.5003H23.6565C24.0105 28.5003 24.2975 28.2133 24.2975 27.8592V9.94479C24.2975 9.59073 24.0105 9.30371 23.6565 9.30371Z" fill="#472D19"/>
<path d="M23.6563 28.8851H8.72935C8.16391 28.8851 7.70361 28.4248 7.70361 27.8594V9.94492C7.70361 9.37949 8.16391 8.91919 8.72935 8.91919H23.6563C24.2218 8.91919 24.6821 9.37949 24.6821 9.94492V27.8594C24.6821 28.4248 24.2218 28.8851 23.6563 28.8851ZM8.72935 9.68849C8.58767 9.68849 8.47291 9.80324 8.47291 9.94492V27.8594C8.47291 28.0011 8.58767 28.1158 8.72935 28.1158H23.6563C23.798 28.1158 23.9128 28.0011 23.9128 27.8594V9.94492C23.9128 9.80324 23.798 9.68849 23.6563 9.68849H8.72935Z" fill="white"/>
<path d="M15.4222 9.30371H12.2988V28.5003H15.4222V9.30371Z" fill="#472D19"/>
<path d="M15.4223 28.8851H12.299C12.0868 28.8851 11.9143 28.7127 11.9143 28.5005V9.30384C11.9143 9.09164 12.0868 8.91919 12.299 8.91919H15.4223C15.6345 8.91919 15.807 9.09164 15.807 9.30384V28.5005C15.807 28.7127 15.6345 28.8851 15.4223 28.8851ZM12.6836 28.1158H15.0377V9.68849H12.6836V28.1158Z" fill="white"/>
</svg>
