<svg width="60" height="60" viewBox="0 0 60 60" fill="none" xmlns="http://www.w3.org/2000/svg">
<path d="M55.5001 42.2976H50.6306V40.8219H54.0392V8.35597H12.6482V12.2912H11.1874V6.88025H55.5001V42.2976Z" fill="#999999"/>
<path d="M50.1436 18.6863V41.314H11.6743V11.7996H22.6259L27.4516 18.6863H50.1436Z" fill="#E7E7E7"/>
<path d="M50.1435 41.314V53.1198H4.85693V11.7996H11.6743V41.314H50.1435Z" fill="#E7E7E7"/>
<path d="M50.6306 42.2981H49.1697V40.8223H50.6306V42.2981ZM47.7088 42.2981H46.248V40.8223H47.7088V42.2981ZM44.7871 42.2981H43.3263V40.8223H44.7871V42.2981ZM41.8654 42.2981H40.4045V40.8223H41.8654V42.2981ZM38.9437 42.2981H37.4828V40.8223H38.9437V42.2981ZM36.022 42.2981H34.5611V40.8223H36.022V42.2981ZM33.1003 42.2981H31.6394V40.8223H33.1003V42.2981ZM30.1785 42.2981H28.7177V40.8223H30.1785V42.2981ZM27.2568 42.2981H25.796V40.8223H27.2568V42.2981ZM24.3351 42.2981H22.8742V40.8223H24.3351V42.2981ZM21.4134 42.2981H19.9525V40.8223H21.4134V42.2981ZM18.4917 42.2981H17.0308V40.8223H18.4917V42.2981ZM15.57 42.2981H14.1091V40.8223H15.57V42.2981ZM12.6482 42.2981H11.1874V40.8223H12.6482V42.2981ZM12.6482 39.3466H11.1874V37.8709H12.6482V39.3466ZM12.6482 36.3952H11.1874V34.9194H12.6482V36.3952ZM12.6482 33.4437H11.1874V31.968H12.6482V33.4437ZM12.6482 30.4923H11.1874V29.0165H12.6482V30.4923ZM12.6482 27.5408H11.1874V26.0651H12.6482V27.5408ZM12.6482 24.5894H11.1874V23.1137H12.6482V24.5894ZM12.6482 21.6379H11.1874V20.1622H12.6482V21.6379ZM12.6482 18.6865H11.1874V17.2108H12.6482V18.6865ZM12.6482 15.735H11.1874V14.2593H12.6482V15.735ZM12.6482 12.7836H11.1874V11.3079H12.6482V12.7836Z" fill="#999999"/>
</svg>
