<svg width="20" height="20" viewBox="0 0 20 20" fill="none" xmlns="http://www.w3.org/2000/svg">
<circle cx="10" cy="10" r="10" fill="#EFEFEF"/>
<mask id="mask0_11_615" style="mask-type:alpha" maskUnits="userSpaceOnUse" x="0" y="0" width="20" height="20">
<circle cx="10" cy="10" r="10" fill="#D9D9D9"/>
</mask>
<g mask="url(#mask0_11_615)">
<path d="M15.5422 16.0492C14.7873 15.3933 13.6867 14.8446 12.0815 14.5894C11.9397 14.5445 11.7278 13.9587 11.7106 13.8662C11.7106 13.8662 11.708 13.8675 11.708 13.8688C11.7782 13.8067 11.8444 13.7458 11.9066 13.685C12.3172 13.2818 12.8973 12.5625 13.0205 11.9304C14.1105 11.6396 14.276 9.3746 13.1264 8.99909C13.8919 5.95006 12.696 5.90114 12.2682 5.92229C12.6933 5.1964 11.6603 4.84204 10.8524 4.84204C10.0445 4.84204 8.43532 5.65917 7.15461 5.31539C6.25532 5.07343 7.06587 6.13385 7.04203 6.22905C6.24605 6.6429 6.55862 8.40806 6.7043 9.05727C5.66595 9.56897 5.7441 11.6938 6.95859 11.9397C7.08574 12.5704 7.66186 13.2857 8.07111 13.6864C8.12938 13.7432 8.1903 13.8014 8.2552 13.8582C8.2552 13.8582 8.25388 13.8569 8.25255 13.8556C8.24593 13.8886 8.16382 14.3607 7.9188 14.5907C6.3136 14.8446 5.213 15.3947 4.45941 16.0505C3.01181 17.3066 2.84229 18.9541 2.84229 19.6575C2.84229 19.873 2.85818 19.9999 2.85818 19.9999H17.1421C17.1421 19.9999 17.4321 17.6927 15.5422 16.0505V16.0492Z" fill="#C8C6C5"/>
</g>
</svg>
