<svg width="20" height="20" viewBox="0 0 20 20" fill="none" xmlns="http://www.w3.org/2000/svg">
<path d="M2.92233 3.91428C2.80706 3.80862 2.65637 3.75 2.5 3.75C2.49095 3.75 2.4819 3.7502 2.47285 3.75059C2.30725 3.75779 2.15129 3.83048 2.03928 3.95267C1.93362 4.06794 1.875 4.21863 1.875 4.375C1.875 4.38405 1.8752 4.3931 1.87559 4.40215C1.88279 4.56775 1.95548 4.72371 2.07767 4.83572L9.57767 11.7107C9.81662 11.9298 10.1834 11.9298 10.4223 11.7107L17.9219 4.8361C18.0511 4.71772 18.125 4.55019 18.125 4.375L18.125 4.3698C18.1237 4.21523 18.0652 4.06662 17.9607 3.95267C17.8487 3.83048 17.6928 3.75779 17.5271 3.75059C17.5181 3.7502 17.5091 3.75 17.5 3.75L17.4971 3.75001C17.3417 3.75072 17.1922 3.80929 17.0777 3.91428L10 10.4021L2.92233 3.91428Z" fill="#F5F5F5"/>
<path fill-rule="evenodd" clip-rule="evenodd" d="M1.875 15V4.375C1.875 4.02982 2.15482 3.75 2.5 3.75L17.5 3.75C17.8452 3.75 18.125 4.02982 18.125 4.375V15C18.125 15 18.125 15.5178 17.7589 15.8839C17.7589 15.8839 17.3928 16.25 16.875 16.25H3.125C3.125 16.25 2.60723 16.25 2.24112 15.8839C2.24112 15.8839 1.875 15.5178 1.875 15ZM3.125 15H16.875V5H3.125V15Z" fill="#F5F5F5"/>
<path d="M8.21037 9.53938L2.27287 14.9847C2.1438 15.1031 2.07031 15.2702 2.07031 15.4453L2.07034 15.4507C2.07166 15.6052 2.13021 15.7538 2.23469 15.8678C2.35307 15.9968 2.52017 16.0703 2.69531 16.0703L2.70066 16.0703C2.85523 16.069 3.00383 16.0104 3.11775 15.9059L9.05525 10.4606C9.18433 10.3422 9.25781 10.1751 9.25781 10L9.25779 9.99465C9.25647 9.84008 9.19791 9.69148 9.09343 9.57756C8.9814 9.4554 8.82542 9.38274 8.65981 9.37558C8.65082 9.37519 8.64182 9.375 8.63281 9.375L8.62979 9.37501C8.47441 9.37576 8.32489 9.43436 8.21037 9.53938Z" fill="#F5F5F5"/>
<path d="M17.7271 14.9847L11.7896 9.53938C11.6743 9.43365 11.5236 9.375 11.3672 9.375C11.3582 9.375 11.3492 9.37519 11.3402 9.37558C11.1746 9.38274 11.0186 9.4554 10.9066 9.57756C10.8008 9.69284 10.7422 9.84358 10.7422 10C10.7422 10.009 10.7424 10.018 10.7428 10.027C10.7499 10.1926 10.8226 10.3486 10.9447 10.4606L16.8821 15.9058C16.9974 16.0115 17.1483 16.0703 17.3047 16.0703C17.3137 16.0703 17.3227 16.0701 17.3317 16.0697C17.4973 16.0626 17.6533 15.9899 17.7653 15.8678C17.871 15.7525 17.9297 15.6017 17.9297 15.4453C17.9297 15.4363 17.9295 15.4273 17.9291 15.4183C17.9219 15.2527 17.8493 15.0967 17.7271 14.9847Z" fill="#F5F5F5"/>
</svg>
