<svg width="60" height="60" viewBox="0 0 60 60" fill="none" xmlns="http://www.w3.org/2000/svg">
<path d="M24.5596 31.4298C20.0845 31.4298 16.1904 27.3461 15.1857 21.6603C14.5198 21.4303 13.6644 20.8129 13.2366 19.215C12.7443 17.3789 13.3173 16.5113 13.7047 16.1562C14.0275 15.8576 14.4512 15.6962 14.9113 15.6841C14.5763 14.2758 14.6086 12.8998 15.0081 11.7336C16.4447 7.52477 19.572 5.47888 24.5596 5.47888C29.5472 5.47888 32.8279 7.62968 34.2201 12.0564C34.4904 12.9119 34.5146 14.0014 34.2967 15.3007C34.7003 15.3209 35.0715 15.4783 35.3661 15.7648C35.8463 16.2248 36.3063 17.2014 35.7777 19.223C35.4064 20.6515 34.4703 21.3173 33.9457 21.5877C32.9611 27.3138 29.0549 31.4298 24.5596 31.4298ZM14.9637 16.8906C14.8104 16.8906 14.653 16.927 14.5239 17.044C14.2172 17.3265 14.1728 18.0205 14.4068 18.9002C14.6732 19.8969 15.1574 20.474 15.8111 20.5708L16.251 20.6394L16.3155 21.0793C17.1145 26.3736 20.5808 30.2192 24.5556 30.2192C28.5303 30.2192 32.0007 26.3736 32.7996 21.0752L32.8561 20.6959L33.2234 20.587C33.2597 20.5749 34.2645 20.2319 34.6034 18.9204C34.9424 17.621 34.785 16.8906 34.5227 16.6364C34.3532 16.475 34.1273 16.4992 33.9618 16.5477C33.6995 16.6243 33.417 16.5598 33.2193 16.3782C33.0176 16.1925 32.9328 15.9262 32.9893 15.6599C33.2798 14.296 33.3041 13.2064 33.0579 12.4236C31.8312 8.51341 29.1275 6.6935 24.5515 6.6935C19.9755 6.6935 17.4131 8.4206 16.142 12.129C15.7587 13.2468 15.8071 14.6914 16.2752 16.0997C16.3599 16.354 16.2954 16.6284 16.1017 16.818C15.908 17.0077 15.6295 17.0682 15.3753 16.9754C15.2865 16.9431 15.1251 16.8987 14.9556 16.8987L14.9637 16.8906Z" fill="#999999"/>
<path d="M21.7792 52.5179C15.569 52.0296 9.85903 49.7013 5.26689 45.7871C5.14986 45.6862 5.03284 45.5853 4.91582 45.4804L4.50018 45.1212L4.51632 44.8226C4.95617 37.6277 10.2141 31.7362 17.3122 30.4893L17.8206 30.4086L18.0345 30.6023C18.9061 31.3852 19.8988 31.9985 20.9883 32.4222C22.1222 32.8621 23.3086 33.088 24.5192 33.088C26.9121 33.088 29.2163 32.2043 31.0039 30.6023L31.25 30.3804L35.3539 31.5022L35.0351 32.6684L31.5608 31.7201C29.5875 33.3867 27.1018 34.2986 24.5192 34.2986C23.1593 34.2986 21.8236 34.0484 20.5445 33.5481C19.4146 33.1042 18.3735 32.4828 17.4454 31.6959C11.0414 32.85 6.27167 38.1281 5.74305 44.6007C5.84393 44.6895 5.94481 44.7782 6.04569 44.863C10.4441 48.6118 15.912 50.8433 21.868 51.3114L21.7752 52.5179H21.7792Z" fill="#999999"/>
<path d="M27.3278 52.5182L27.235 51.3116C31.7908 50.9525 36.1933 49.5079 39.9744 47.1311C41.0276 46.4653 42.6861 45.0771 43.9007 44.0683L43.9451 44.032L44.7198 44.9601L44.6755 44.9964C43.4366 46.0294 41.7418 47.4458 40.62 48.156C36.6735 50.6377 32.0773 52.1469 27.3278 52.5182Z" fill="#999999"/>
<path d="M26.2503 38.33H26.6094C27.0493 38.33 27.3761 37.9265 27.2914 37.4988L26.9201 35.6627C26.8596 35.3359 26.5731 35.1018 26.2422 35.1018H22.8647C22.5378 35.1018 22.2513 35.3359 22.1827 35.6627L21.8195 37.4786C21.7348 37.9184 22.0697 38.33 22.5176 38.33H22.8566L21.7348 53.4825C21.6864 54.0152 22.1101 54.4711 22.6427 54.4711H26.4641C27.0008 54.4711 27.4205 54.0152 27.3761 53.4825L26.2503 38.33Z" fill="#E7E7E7"/>
<path d="M55.6999 48.4304L52.1852 42.9489C52.512 42.6624 52.8268 42.3557 53.1173 42.0329C54.562 40.4753 55.5869 38.506 56.0268 36.2624C57.2898 29.7858 53.0649 23.5069 46.5842 22.2479C40.1076 20.9808 33.8327 25.2098 32.5657 31.6864C31.3067 38.163 35.5316 44.4419 42.0082 45.7009C44.1106 46.1125 46.1767 45.9431 48.0652 45.3055L51.7696 51.0776C52.4959 52.155 53.9768 52.4415 55.0583 51.7232C56.1357 50.9888 56.4263 49.5119 55.6999 48.4304ZM44.2478 41.5971C40.0915 41.5971 36.726 38.2316 36.726 34.0753C36.726 29.919 40.0915 26.5535 44.2478 26.5535C48.4041 26.5535 51.7696 29.923 51.7696 34.0753C51.7696 38.2276 48.4001 41.5971 44.2478 41.5971Z" fill="#E7E7E7"/>
<path d="M44.1873 40.2007L44.1671 38.9901C44.5263 38.986 44.8854 38.9376 45.2324 38.8569L45.5149 40.0352C45.0791 40.1401 44.6312 40.1966 44.1833 40.2047L44.1873 40.2007ZM42.8516 40.0756C42.4118 39.9828 41.984 39.8415 41.5765 39.6559L42.0809 38.5543C42.4077 38.7036 42.7507 38.8166 43.1018 38.8892L42.8557 40.0756H42.8516ZM46.7779 39.5752L46.2372 38.4897C46.556 38.3283 46.8627 38.1346 47.1411 37.9086L47.9038 38.8488C47.5568 39.1313 47.1774 39.3775 46.7739 39.5752H46.7779ZM40.4224 38.9659C40.0673 38.6955 39.7404 38.3848 39.4539 38.0418L40.382 37.263C40.612 37.5374 40.8743 37.7876 41.1608 38.0055L40.4264 38.9699L40.4224 38.9659ZM48.848 37.8925L47.8957 37.1419C48.1177 36.8595 48.3073 36.5528 48.4607 36.2299L49.5542 36.7505C49.3605 37.154 49.1224 37.5374 48.844 37.8925H48.848ZM38.7114 36.924C38.5056 36.5245 38.3442 36.1049 38.2312 35.669L39.4015 35.3664C39.4902 35.7134 39.6194 36.0524 39.7848 36.3671L38.7074 36.924H38.7114ZM49.9941 35.4834L48.8117 35.2171C48.8884 34.8701 48.9287 34.5109 48.9287 34.1477C48.9287 34.0428 48.9287 33.9419 48.9207 33.8411L50.1272 33.7644C50.1353 33.8895 50.1393 34.0186 50.1393 34.1477C50.1393 34.5957 50.0909 35.0476 49.99 35.4794L49.9941 35.4834ZM38.0416 34.3414C38.0416 34.2769 38.0416 34.2123 38.0416 34.1477C38.0416 33.7644 38.0779 33.377 38.1505 33.0017L39.3409 33.2277C39.2844 33.5263 39.2562 33.837 39.2562 34.1437C39.2562 34.1962 39.2562 34.2486 39.2562 34.2971L38.0456 34.3334L38.0416 34.3414ZM48.7391 32.7838C48.6382 32.4408 48.497 32.1059 48.3235 31.7952L49.3807 31.206C49.5986 31.5974 49.7721 32.0131 49.9013 32.4449L48.7391 32.7838ZM39.6516 32.2068L38.5419 31.7225C38.7195 31.3109 38.9495 30.9236 39.2158 30.5604L40.1883 31.2787C39.9745 31.5692 39.7929 31.8799 39.6516 32.2068ZM47.698 30.9236C47.4599 30.6572 47.1895 30.4151 46.899 30.2053L47.6011 29.2207C47.9643 29.4789 48.2992 29.7816 48.6019 30.1165L47.702 30.9236H47.698ZM40.9187 30.4918L40.1278 29.5758C40.4668 29.2812 40.838 29.027 41.2335 28.8131L41.8065 29.8784C41.4917 30.0479 41.1931 30.2537 40.9228 30.4877L40.9187 30.4918ZM45.9628 29.6807C45.6319 29.5435 45.2849 29.4386 44.9338 29.378L45.1437 28.1836C45.5875 28.2603 46.0193 28.3894 46.4309 28.5629L45.9628 29.6807ZM42.7992 29.483L42.4763 28.3168C42.9081 28.1997 43.352 28.1271 43.7999 28.1069L43.8564 29.3175C43.4973 29.3337 43.1422 29.3902 42.7951 29.487L42.7992 29.483Z" fill="#999999"/>
</svg>
