<svg width="24" height="24" viewBox="0 0 24 24" fill="none" xmlns="http://www.w3.org/2000/svg">
<path fill-rule="evenodd" clip-rule="evenodd" d="M23.5433 2.48293C23.7381 2.68766 23.8014 2.98457 23.7068 3.25094L16.9615 22.2509C16.8773 22.4882 16.6796 22.6674 16.4353 22.728C16.1909 22.7886 15.9325 22.7225 15.7471 22.5521L12.1334 19.2296L10.3469 21.994C10.1756 22.2591 9.85672 22.3886 9.54913 22.3179C9.24154 22.2473 9.01108 21.9917 8.9726 21.6784L8.2013 15.3993C8.17148 15.1565 8.26191 14.9145 8.44359 14.7507L15.5 8.89043L6.74905 13.9879C6.50174 14.1198 6.20156 14.1027 5.97077 13.9437L0.574543 10.2263C0.33701 10.0627 0.214364 9.77736 0.259095 9.49241C0.303825 9.20746 0.508005 8.97341 0.78425 8.89043L22.7843 2.28173C23.055 2.20041 23.3484 2.27819 23.5433 2.48293ZM2.71222 9.87749L6.44603 12.4497L17.6661 6.46862C18.0005 6.29036 18.4153 6.38955 18.6329 6.6998C18.8505 7.01005 18.8025 7.43387 18.521 7.68758L9.73769 15.6037L10.2093 19.4433L11.3563 17.6684C11.4763 17.4828 11.672 17.3595 11.8913 17.3315C12.1106 17.3036 12.3311 17.3738 12.4938 17.5234L15.9274 20.6803L21.798 4.14423L2.71222 9.87749Z" fill="white"/>
</svg>
