<svg width="24" height="24" viewBox="0 0 24 24" fill="none" xmlns="http://www.w3.org/2000/svg">
<path d="M3.50679 4.69713C3.36847 4.57034 3.18764 4.5 3 4.5C2.98914 4.5 2.97828 4.50024 2.96742 4.50071C2.7687 4.50935 2.58154 4.59658 2.44713 4.74321C2.32034 4.88153 2.25 5.06236 2.25 5.25C2.25 5.26086 2.25024 5.27172 2.25071 5.28258C2.25935 5.4813 2.34658 5.66846 2.49321 5.80287L11.4932 14.0529C11.7799 14.3157 12.2201 14.3157 12.5068 14.0529L21.5063 5.80333C21.6613 5.66127 21.75 5.46023 21.75 5.25L21.75 5.24376C21.7484 5.05828 21.6782 4.87994 21.5529 4.74321C21.4185 4.59658 21.2313 4.50935 21.0326 4.50071C21.0217 4.50024 21.0109 4.5 21 4.5L20.9965 4.50001C20.8101 4.50087 20.6306 4.57114 20.4932 4.69713L12 12.4826L3.50679 4.69713Z" fill="white"/>
<path fill-rule="evenodd" clip-rule="evenodd" d="M2.25 18V5.25C2.25 4.83579 2.58579 4.5 3 4.5L21 4.5C21.4142 4.5 21.75 4.83579 21.75 5.25V18C21.75 18 21.75 18.6213 21.3107 19.0607C21.3107 19.0607 20.8713 19.5 20.25 19.5H3.75C3.75 19.5 3.12868 19.5 2.68934 19.0607C2.68934 19.0607 2.25 18.6213 2.25 18ZM3.75 18H20.25V6H3.75V18Z" fill="white"/>
<path d="M9.85245 11.4473L2.72745 17.9816C2.57256 18.1237 2.48438 18.3242 2.48438 18.5344L2.4844 18.5408C2.48599 18.7263 2.55626 18.9046 2.68163 19.0413C2.82368 19.1962 3.02421 19.2844 3.23438 19.2844L3.24079 19.2843C3.42628 19.2828 3.60459 19.2125 3.7413 19.0871L10.8663 12.5527C11.0212 12.4107 11.1094 12.2102 11.1094 12L11.1093 11.9936C11.1078 11.8081 11.0375 11.6298 10.9121 11.4931C10.7777 11.3465 10.5905 11.2593 10.3918 11.2507C10.381 11.2502 10.3702 11.25 10.3594 11.25L10.3557 11.25C10.1693 11.2509 9.98986 11.3212 9.85245 11.4473Z" fill="white"/>
<path d="M21.2725 17.9816L14.1476 11.4473C14.0092 11.3204 13.8283 11.25 13.6406 11.25C13.6298 11.25 13.619 11.2502 13.6082 11.2507C13.4095 11.2593 13.2223 11.3465 13.0879 11.4931C12.961 11.6314 12.8906 11.8123 12.8906 12C12.8906 12.0108 12.8909 12.0216 12.8913 12.0324C12.8999 12.2311 12.9871 12.4183 13.1337 12.5527L20.2585 19.0869C20.3968 19.2138 20.5779 19.2844 20.7656 19.2844C20.7764 19.2844 20.7872 19.2841 20.798 19.2837C20.9967 19.2751 21.1839 19.1879 21.3184 19.0413C21.4452 18.903 21.5156 18.7221 21.5156 18.5344C21.5156 18.5236 21.5154 18.5128 21.5149 18.502C21.5063 18.3032 21.4191 18.1161 21.2725 17.9816Z" fill="white"/>
</svg>
