<svg width="25" height="24" viewBox="0 0 25 24" fill="none" xmlns="http://www.w3.org/2000/svg">
<path d="M5.89472 6.69629L17.562 18.3636C17.8549 18.6564 18.3297 18.6564 18.6226 18.3636C18.9155 18.0707 18.9155 17.5958 18.6226 17.3029L6.95538 5.63563C6.66249 5.34274 6.18761 5.34274 5.89472 5.63563C5.60183 5.92852 5.60183 6.4034 5.89472 6.69629Z" fill="#333333"/>
<path d="M11.6698 12.75H12.8443C12.8738 12.75 12.8977 12.4142 12.8977 12C12.8977 11.5858 12.8738 11.25 12.8443 11.25H11.6698C11.6404 11.25 11.6165 11.5858 11.6165 12C11.6165 12.4142 11.6404 12.75 11.6698 12.75Z" fill="#333333"/>
<path d="M6.95415 18.3638L18.6214 6.69653C18.9143 6.40364 18.9143 5.92877 18.6214 5.63587C18.3285 5.34298 17.8536 5.34298 17.5608 5.63587L5.89349 17.3031C5.6006 17.596 5.6006 18.0709 5.89349 18.3638C6.18638 18.6567 6.66126 18.6567 6.95415 18.3638Z" fill="#333333"/>
</svg>
