<svg width="60" height="60" viewBox="0 0 60 60" fill="none" xmlns="http://www.w3.org/2000/svg">
<path d="M18.5866 20.7635H6L18.5866 7.25647V20.7635ZM8.7329 19.5814H17.3844V10.2944L8.7329 19.5814Z" fill="#999999"/>
<path d="M30.463 51.0852C19.1019 51.0852 6.89667 51.0526 6.71066 51.0526H6L6 24.2223H7.43086V49.6556C11.7378 49.665 33.7487 49.7162 44.027 49.6556V9.32106H21.7395V7.92407L45.4579 7.92407V51.048H44.7472C41.0938 51.0759 36.1912 51.0852 30.463 51.0852Z" fill="#999999"/>
<path d="M39.1434 27.1782C39.1033 27.1782 39.0632 27.1782 39.0232 27.1822C33.2608 27.2413 28.6045 31.8592 28.6045 37.5449C28.6045 40.0863 29.5342 42.415 31.0809 44.2157C31.137 44.2787 31.1931 44.3418 31.2532 44.4048C33.1807 46.5522 36.0017 47.9077 39.1434 47.9077C44.9658 47.9077 49.6863 43.2661 49.6863 37.5449C49.6863 31.8237 44.9658 27.1782 39.1434 27.1782ZM39.1434 42.3283C39.1033 42.3283 39.0632 42.3283 39.0232 42.3244C36.3945 42.2653 34.2787 40.1455 34.2787 37.5449C34.2787 34.9444 36.3945 32.8245 39.0232 32.7654C39.0632 32.7654 39.1033 32.7654 39.1434 32.7654C41.8322 32.7654 44.0081 34.905 44.0081 37.5489C44.0081 40.1927 41.8322 42.3323 39.1434 42.3323V42.3283Z" fill="#E7E7E7"/>
<path d="M38.6183 54.2434C38.2056 54.2276 37.7889 54.2 37.3801 54.1567L37.5084 52.9825C37.889 53.0219 38.2777 53.0495 38.6624 53.0613L38.6223 54.2434H38.6183ZM39.8606 54.2434L39.8165 53.0613C40.2012 53.0456 40.5899 53.018 40.9706 52.9786L41.1028 54.1528C40.6941 54.1961 40.2773 54.2276 39.8646 54.2434H39.8606ZM36.1499 53.9833C35.7452 53.9124 35.3365 53.8218 34.9357 53.7193L35.2363 52.5767C35.6089 52.6712 35.9896 52.754 36.3623 52.821L36.1459 53.9833H36.1499ZM42.329 53.9755L42.1126 52.8131C42.4893 52.7461 42.87 52.6634 43.2386 52.5649L43.5432 53.7075C43.1424 53.81 42.7337 53.9006 42.329 53.9715V53.9755ZM33.7416 53.3687C33.3529 53.2386 32.9602 53.0928 32.5795 52.9313L33.0484 51.8438C33.405 51.9935 33.7656 52.1275 34.1303 52.2496L33.7456 53.3687H33.7416ZM44.7333 53.3568L44.3446 52.2378C44.7052 52.1157 45.0699 51.9817 45.4225 51.832L45.8954 52.9195C45.5147 53.081 45.126 53.2268 44.7333 53.3568ZM31.4535 52.4151C31.0848 52.2299 30.7202 52.029 30.3676 51.8162L30.9927 50.8075C31.3213 51.0045 31.6579 51.1897 32.0025 51.3631L31.4535 52.4151ZM47.0174 52.3994L46.4644 51.3473C46.805 51.174 47.1416 50.9888 47.4702 50.7918L48.0993 51.8005C47.7467 52.0132 47.382 52.2142 47.0174 52.3994ZM29.3297 51.1385C28.9931 50.9021 28.6605 50.6499 28.3439 50.3899L29.1133 49.4797C29.4058 49.72 29.7144 49.9525 30.0269 50.1731L29.3297 51.1346V51.1385ZM49.1372 51.1267L48.4359 50.1653C48.7485 49.9446 49.057 49.7121 49.3496 49.4679L50.1189 50.3741C49.8024 50.6342 49.4738 50.8863 49.1372 51.1227V51.1267ZM27.4183 49.5782C27.1217 49.2984 26.8292 49.0029 26.5527 48.6995L27.4463 47.9075C27.7028 48.1873 27.9753 48.4631 28.2518 48.7232L27.4183 49.5742V49.5782ZM51.0446 49.5624L50.2111 48.7113C50.4876 48.4473 50.7561 48.1715 51.0125 47.8918L51.9061 48.6798C51.6297 48.9832 51.3411 49.2787 51.0446 49.5585V49.5624ZM25.7553 47.7617C25.5028 47.4426 25.2584 47.1077 25.03 46.7688L26.0318 46.1147C26.2442 46.43 26.4726 46.7412 26.705 47.0367L25.7553 47.7617ZM52.7036 47.742L51.7539 47.021C51.9903 46.7215 52.2147 46.4102 52.4271 46.095L53.4289 46.7491C53.2005 47.088 52.956 47.4229 52.7036 47.742ZM24.3808 45.7286C24.1765 45.3779 23.9881 45.0115 23.8118 44.645L24.8978 44.1407C25.0621 44.4835 25.2384 44.8223 25.4267 45.1494L24.3808 45.7325V45.7286ZM54.078 45.705L53.0282 45.1257C53.2165 44.7987 53.3928 44.4559 53.5571 44.1131L54.6471 44.6135C54.4707 44.98 54.2784 45.3464 54.078 45.701V45.705ZM23.3229 43.5221C23.1747 43.1438 23.0384 42.7537 22.9182 42.3676L24.0683 42.0248C24.1805 42.3873 24.3047 42.7498 24.4449 43.1005L23.3229 43.526V43.5221ZM55.1319 43.4906L54.0099 43.069C54.1462 42.7143 54.2744 42.3558 54.3826 41.9933L55.5326 42.3321C55.4124 42.7222 55.2802 43.1123 55.1319 43.4906ZM22.6016 41.1816C22.5135 40.7876 22.4333 40.3817 22.3732 39.9798L23.5634 39.8065C23.6195 40.1808 23.6916 40.5551 23.7757 40.9215L22.6016 41.1816ZM55.8492 41.1461L54.6751 40.89C54.7593 40.5236 54.8274 40.1493 54.8835 39.771L56.0736 39.9404C56.0135 40.3423 55.9374 40.7482 55.8492 41.1422V41.1461ZM22.237 38.7623C22.2049 38.3604 22.1889 37.9467 22.1889 37.5408H23.3911C23.3911 37.9191 23.4071 38.3013 23.4351 38.6756L22.237 38.7623ZM56.2059 38.7268L55.0077 38.6402C55.0358 38.2658 55.0478 37.8836 55.0478 37.5054V37.4423L56.2499 37.4305V37.5093C56.2499 37.9112 56.2339 38.321 56.2059 38.7268ZM23.4311 36.4061L22.233 36.3233C22.261 35.9175 22.3051 35.5077 22.3652 35.1097L23.5554 35.2792C23.4993 35.6495 23.4592 36.0317 23.4311 36.41V36.4061ZM55.0037 36.3076C54.9757 35.9293 54.9316 35.551 54.8755 35.1767L56.0656 35.0033C56.1257 35.4052 56.1738 35.8111 56.2059 36.2169L55.0077 36.3076H55.0037ZM23.7597 34.1562L22.5856 33.904C22.6738 33.51 22.778 33.1081 22.8982 32.722L24.0522 33.0608C23.944 33.4233 23.8439 33.7937 23.7637 34.1601L23.7597 34.1562ZM54.6591 34.0616C54.5749 33.6952 54.4748 33.3248 54.3626 32.9623L55.5126 32.6195C55.6328 33.0096 55.741 33.4076 55.8292 33.8016L54.6551 34.0616H54.6591ZM24.4209 31.9812L23.2989 31.5596C23.4472 31.1774 23.6074 30.7991 23.7838 30.4327L24.8737 30.9331C24.7134 31.2759 24.5612 31.6266 24.4249 31.9812H24.4209ZM53.9859 31.8906C53.8496 31.5399 53.6934 31.1892 53.5291 30.8464L54.615 30.3381C54.7913 30.7046 54.9556 31.0828 55.1039 31.4611L53.9819 31.8866L53.9859 31.8906ZM25.3987 29.9205L24.3488 29.3452C24.5491 28.9906 24.7695 28.6399 24.9939 28.301L25.9957 28.9512C25.7833 29.2664 25.583 29.5934 25.3946 29.9205H25.3987ZM53.0001 29.8377C52.8118 29.5107 52.6074 29.1837 52.395 28.8724L53.3928 28.2144C53.6212 28.5532 53.8416 28.9039 54.046 29.2546L53.0001 29.8377ZM26.6689 28.0252L25.7152 27.3042C25.9677 26.9811 26.2362 26.6659 26.5086 26.3625L27.4063 27.1505C27.1498 27.4303 26.9013 27.7258 26.6689 28.0252ZM51.7178 27.9504C51.4814 27.6509 51.2329 27.3593 50.9765 27.0796L51.8701 26.2876C52.1466 26.5871 52.4151 26.9023 52.6675 27.2254L51.7178 27.9504ZM28.2077 26.3309L27.3702 25.4838C27.6667 25.2001 27.9753 24.9243 28.2918 24.6642L29.0652 25.5705C28.7727 25.8108 28.4802 26.0669 28.2077 26.3309ZM50.167 26.264C49.8905 26.0039 49.598 25.7478 49.3015 25.5074L50.0669 24.5972C50.3834 24.8534 50.696 25.1292 50.9965 25.4089L50.167 26.264ZM29.9789 24.8731L29.2776 23.9156C29.6102 23.6792 29.9588 23.4507 30.3115 23.2379L30.9406 24.2466C30.612 24.4436 30.2914 24.6564 29.9789 24.877V24.8731ZM48.3878 24.8179C48.0753 24.5973 47.7507 24.3884 47.4221 24.1914L48.0472 23.1827C48.3999 23.3915 48.7485 23.6201 49.0851 23.8565L48.3878 24.8179ZM31.9464 23.6831L31.3934 22.635C31.758 22.4498 32.1387 22.2725 32.5154 22.111L32.9883 23.1985C32.6356 23.3482 32.287 23.5098 31.9464 23.6831ZM46.4123 23.6398C46.0717 23.4664 45.7191 23.3049 45.3624 23.1591L45.8313 22.0716C46.2119 22.2292 46.5926 22.4026 46.9613 22.5877L46.4163 23.6398H46.4123ZM34.0662 22.7887L33.6735 21.6697C34.0662 21.5357 34.4669 21.4175 34.8636 21.3151L35.1682 22.4577C34.7995 22.5523 34.4268 22.6626 34.0622 22.7887H34.0662ZM44.2805 22.7572C43.9158 22.635 43.5432 22.5286 43.1745 22.4341L43.475 21.2875C43.8758 21.3899 44.2765 21.5042 44.6692 21.6342L44.2845 22.7532L44.2805 22.7572ZM36.2982 22.2095L36.0778 21.0471C36.4825 20.9723 36.8953 20.9132 37.308 20.8659L37.4402 22.0401C37.0595 22.0834 36.6749 22.1386 36.2982 22.2095ZM42.0445 22.1898C41.6678 22.1228 41.2831 22.0676 40.9024 22.0282L41.0307 20.8541C41.4394 20.8974 41.8561 20.9565 42.2609 21.0274L42.0485 22.1898H42.0445ZM38.5903 21.9573L38.5422 20.7752C38.9549 20.7595 39.3717 20.7595 39.7844 20.7752L39.7444 21.9573C39.3597 21.9455 38.971 21.9455 38.5903 21.9573Z" fill="#999999"/>
</svg>
