<svg width="33" height="32" viewBox="0 0 33 32" fill="none" xmlns="http://www.w3.org/2000/svg">
<path d="M30.25 17.395V14.605L27.9201 14.1395C27.632 12.3995 26.9477 10.7981 25.9615 9.42109L27.2829 7.44007L25.3104 5.46737L23.3241 6.79174C21.95 5.81093 20.3487 5.13212 18.6145 4.84674L18.1463 2.5H15.3565L14.8855 4.85505C13.1568 5.14597 11.5639 5.82755 10.1953 6.80559L8.18957 5.46737L6.21706 7.44007L7.55515 9.44879C6.57998 10.8147 5.90401 12.4079 5.61866 14.1312L3.25 14.605V17.395L5.61866 17.8688C5.90401 19.5922 6.58275 21.1853 7.55515 22.5512L6.21706 24.5599L8.18957 26.5326L10.1953 25.1944C11.5639 26.1725 13.1568 26.8568 14.8855 27.1449L15.3565 29.5H18.1463L18.6145 27.1533C20.3487 26.8679 21.95 26.1891 23.3241 25.2083L25.3104 26.5326L27.2829 24.5599L25.9615 22.5789C26.9477 21.2047 27.632 19.6005 27.9201 17.8605L30.25 17.395ZM25.7703 16.0014C25.7703 20.9719 21.7422 25.0005 16.7722 25.0005C11.8021 25.0005 7.77401 20.9719 7.77401 16.0014C7.77401 11.0308 11.8021 7.00231 16.7722 7.00231C21.7422 7.00231 25.7703 11.0308 25.7703 16.0014Z" fill="#472D19" stroke="#472D19" stroke-width="1.5" stroke-linecap="round" stroke-linejoin="round"/>
<path d="M21.4204 18.4742C21.4204 16.901 20.2846 15.6026 18.8015 15.3727C19.0524 15.0109 19.2012 14.5679 19.2012 14.0912V12.5208C19.2012 11.2869 18.2198 10.2886 17.0069 10.2886C15.794 10.2886 14.8126 11.2897 14.8126 12.5208V14.0912C14.8126 14.5679 14.9614 15.0081 15.2123 15.3727C13.7292 15.6055 12.5962 16.9038 12.5962 18.4742V20.154H21.4231V18.4742H21.4204Z" fill="#472D19" stroke="white" stroke-width="1.5" stroke-linecap="round" stroke-linejoin="round"/>
</svg>
