<svg width="22" height="23" viewBox="0 0 22 23" fill="none" xmlns="http://www.w3.org/2000/svg">
<rect x="5.5" y="8.75" width="11" height="10.0833" rx="2" fill="#EFEFEF"/>
<path fill-rule="evenodd" clip-rule="evenodd" d="M6.25266 8.2675C6.25266 5.60885 8.36338 3.45312 10.9997 3.45312C13.636 3.45312 15.7467 5.60885 15.7467 8.2675V8.54974C16.5639 8.77546 17.161 9.53568 17.161 10.4226V17.6063C17.161 18.6674 16.3063 19.5472 15.2425 19.5472H6.75683C5.69307 19.5472 4.83838 18.6674 4.83838 17.6063V10.4226C4.83838 9.53568 5.43547 8.77546 6.25266 8.54974V8.2675ZM7.261 8.4817H14.7384V8.2675C14.7384 6.15071 13.0642 4.46146 10.9997 4.46146C8.93518 4.46146 7.261 6.15071 7.261 8.2675V8.4817ZM6.75683 9.49003C6.26487 9.49003 5.84671 9.90332 5.84671 10.4226V17.6063C5.84671 18.1255 6.26487 18.5388 6.75683 18.5388H15.2425C15.7345 18.5388 16.1527 18.1255 16.1527 17.6063V10.4226C16.1527 9.90332 15.7345 9.49003 15.2425 9.49003H6.75683ZM10.9997 13.0819C10.5077 13.0819 10.0896 13.4952 10.0896 14.0144C10.0896 14.5337 10.5077 14.947 10.9997 14.947C11.4916 14.947 11.9098 14.5337 11.9098 14.0144C11.9098 13.4952 11.4916 13.0819 10.9997 13.0819ZM9.08124 14.0144C9.08124 12.9533 9.93593 12.0735 10.9997 12.0735C12.0634 12.0735 12.9181 12.9533 12.9181 14.0144C12.9181 15.0756 12.0634 15.9553 10.9997 15.9553C9.93593 15.9553 9.08124 15.0756 9.08124 14.0144Z" fill="#A29F9C"/>
</svg>
