<svg width="40" height="40" viewBox="0 0 40 40" fill="none" xmlns="http://www.w3.org/2000/svg">
<g clip-path="url(#clip0_35_2427)">
<path d="M29.6178 33.0321V34.6171C29.6178 35.0546 29.2648 35.4097 28.8297 35.4097H8.22093C7.78592 35.4097 7.43286 35.0546 7.43286 34.6171V7.53081C7.43286 7.09333 7.78592 6.73828 8.22093 6.73828H10.303L29.6178 33.0321Z" fill="#FF8F36"/>
<path d="M28.8297 35.8851H8.22087C7.5258 35.8851 6.95996 35.3161 6.95996 34.6171V7.53074C6.95996 6.83173 7.5258 6.2627 8.22087 6.2627H10.303C10.4527 6.2627 10.5938 6.33402 10.6836 6.45528L29.9984 32.7491C30.0583 32.8307 30.0906 32.9298 30.0906 33.0312V34.6163C30.0906 35.3153 29.5248 35.8843 28.8297 35.8843V35.8851ZM8.22087 7.21373C8.04671 7.21373 7.90564 7.35559 7.90564 7.53074V34.6171C7.90564 34.7922 8.04671 34.9341 8.22087 34.9341H28.8297C29.0039 34.9341 29.1449 34.7922 29.1449 34.6171V33.1889L10.0642 7.21373H8.22087Z" fill="#FF8F36"/>
<path d="M31.6991 33.032H11.091C10.656 33.032 10.303 32.6769 10.303 32.2394V5.15313C10.303 4.71565 10.656 4.3606 11.091 4.3606H28.8352L32.4879 8.6355V32.2394C32.4879 32.6769 32.1349 33.032 31.6999 33.032H31.6991Z" fill="white"/>
<path d="M31.699 33.5074H11.091C10.3959 33.5074 9.83008 32.9384 9.83008 32.2394V5.15306C9.83008 4.45405 10.3959 3.88501 11.091 3.88501H28.8352C28.9731 3.88501 29.1039 3.94524 29.1937 4.05065L32.8464 8.32556C32.9205 8.41194 32.9607 8.52211 32.9607 8.63544V32.2394C32.9607 32.9384 32.3949 33.5074 31.6998 33.5074H31.699ZM11.091 4.83605C10.9168 4.83605 10.7758 4.97791 10.7758 5.15306V32.2394C10.7758 32.4145 10.9168 32.5564 11.091 32.5564H31.6998C31.874 32.5564 32.015 32.4145 32.015 32.2394V8.81138L28.6185 4.83605H11.091Z" fill="#FF8F36"/>
<path d="M32.4872 8.6355C32.4872 8.45085 32.4233 8.27253 32.3067 8.13066L29.4421 4.64828C29.2923 4.466 29.0701 4.3606 28.8345 4.3606V7.84297C28.8345 8.28045 29.1875 8.6355 29.6225 8.6355H32.4872Z" fill="#FF8F36"/>
<path d="M32.4871 9.11096H29.6225C28.9274 9.11096 28.3616 8.54192 28.3616 7.84291V4.36053C28.3616 4.0982 28.5736 3.88501 28.8344 3.88501C29.2119 3.88501 29.5657 4.05223 29.8061 4.34468L32.6707 7.82706C32.8575 8.05372 32.96 8.34062 32.96 8.63544C32.96 8.89776 32.748 9.11096 32.4871 9.11096ZM29.308 5.23073V7.84291C29.308 8.01806 29.4491 8.15992 29.6233 8.15992H31.718L29.308 5.23073Z" fill="#FF8F36"/>
<path d="M20.517 10.9203H14.6743C14.4134 10.9203 14.2014 10.7071 14.2014 10.4448C14.2014 10.1824 14.4134 9.96924 14.6743 9.96924H20.517C20.7779 9.96924 20.9898 10.1824 20.9898 10.4448C20.9898 10.7071 20.7779 10.9203 20.517 10.9203Z" fill="#FF8F36"/>
<path d="M20.2902 14.3915H14.6752C14.4144 14.3915 14.2024 14.1783 14.2024 13.9159C14.2024 13.6536 14.4144 13.4404 14.6752 13.4404H20.2902C20.5511 13.4404 20.7631 13.6536 20.7631 13.9159C20.7631 14.1783 20.5511 14.3915 20.2902 14.3915Z" fill="#FF8F36"/>
<path d="M28.1156 17.8629H14.6743C14.4134 17.8629 14.2014 17.6497 14.2014 17.3874C14.2014 17.1251 14.4134 16.9119 14.6743 16.9119H28.1148C28.3756 16.9119 28.5876 17.1251 28.5876 17.3874C28.5876 17.6497 28.3756 17.8629 28.1148 17.8629H28.1156Z" fill="#FF8F36"/>
<path d="M28.1156 21.3341H14.6743C14.4134 21.3341 14.2014 21.1209 14.2014 20.8586C14.2014 20.5962 14.4134 20.3831 14.6743 20.3831H28.1148C28.3756 20.3831 28.5876 20.5962 28.5876 20.8586C28.5876 21.1209 28.3756 21.3341 28.1148 21.3341H28.1156Z" fill="#FF8F36"/>
<path d="M28.1156 24.8063H14.6743C14.4134 24.8063 14.2014 24.5931 14.2014 24.3307C14.2014 24.0684 14.4134 23.8552 14.6743 23.8552H28.1148C28.3756 23.8552 28.5876 24.0684 28.5876 24.3307C28.5876 24.5931 28.3756 24.8063 28.1148 24.8063H28.1156Z" fill="#FF8F36"/>
<path d="M28.1156 28.2775H14.6743C14.4134 28.2775 14.2014 28.0643 14.2014 27.8019C14.2014 27.5396 14.4134 27.3264 14.6743 27.3264H28.1148C28.3756 27.3264 28.5876 27.5396 28.5876 27.8019C28.5876 28.0643 28.3756 28.2775 28.1148 28.2775H28.1156Z" fill="#FF8F36"/>
</g>
<defs>
<clipPath id="clip0_35_2427">
<rect width="26" height="32" fill="white" transform="translate(6.95996 3.88501)"/>
</clipPath>
</defs>
</svg>
