<svg width="24" height="24" viewBox="0 0 24 24" fill="none" xmlns="http://www.w3.org/2000/svg">
<path d="M3.75 7.00293H20.25C20.6642 7.00293 21 6.66714 21 6.25293C21 5.83872 20.6642 5.50293 20.25 5.50293H3.75C3.33579 5.50293 3 5.83872 3 6.25293C3 6.66714 3.33579 7.00293 3.75 7.00293Z" fill="black"/>
<path d="M3.75 12.75H20.25C20.6642 12.75 21 12.4142 21 12C21 11.5858 20.6642 11.25 20.25 11.25H3.75C3.33579 11.25 3 11.5858 3 12C3 12.4142 3.33579 12.75 3.75 12.75Z" fill="black"/>
<path d="M3.75 18.4971H20.25C20.6642 18.4971 21 18.1613 21 17.7471C21 17.3329 20.6642 16.9971 20.25 16.9971H3.75C3.33579 16.9971 3 17.3329 3 17.7471C3 18.1613 3.33579 18.4971 3.75 18.4971Z" fill="black"/>
</svg>
