<svg width="20" height="20" viewBox="0 0 20 20" fill="none" xmlns="http://www.w3.org/2000/svg">
<g id="calendar-days">
<path id="Vector (Stroke)" fill-rule="evenodd" clip-rule="evenodd" d="M6.66667 1.0415C7.01184 1.0415 7.29167 1.32133 7.29167 1.6665V2.70817H12.7083V1.6665C12.7083 1.32133 12.9882 1.0415 13.3333 1.0415C13.6785 1.0415 13.9583 1.32133 13.9583 1.6665V2.70817H15.8333C17.099 2.70817 18.125 3.73418 18.125 4.99984V16.6665C18.125 17.9322 17.099 18.9582 15.8333 18.9582H4.16667C2.90101 18.9582 1.875 17.9322 1.875 16.6665V4.99984C1.875 3.73418 2.90101 2.70817 4.16667 2.70817H6.04167V1.6665C6.04167 1.32133 6.32149 1.0415 6.66667 1.0415ZM6.04167 3.95817H4.16667C3.59137 3.95817 3.125 4.42454 3.125 4.99984V7.70817H16.875V4.99984C16.875 4.42454 16.4086 3.95817 15.8333 3.95817H13.9583V4.99984C13.9583 5.34502 13.6785 5.62484 13.3333 5.62484C12.9882 5.62484 12.7083 5.34502 12.7083 4.99984V3.95817H7.29167V4.99984C7.29167 5.34502 7.01184 5.62484 6.66667 5.62484C6.32149 5.62484 6.04167 5.34502 6.04167 4.99984V3.95817ZM16.875 8.95817H3.125V16.6665C3.125 17.2418 3.59137 17.7082 4.16667 17.7082H15.8333C16.4086 17.7082 16.875 17.2418 16.875 16.6665V8.95817ZM6.04167 11.6665C6.04167 11.3213 6.32149 11.0415 6.66667 11.0415H6.675C7.02018 11.0415 7.3 11.3213 7.3 11.6665C7.3 12.0117 7.02018 12.2915 6.675 12.2915H6.66667C6.32149 12.2915 6.04167 12.0117 6.04167 11.6665ZM9.375 11.6665C9.375 11.3213 9.65482 11.0415 10 11.0415H10.0083C10.3535 11.0415 10.6333 11.3213 10.6333 11.6665C10.6333 12.0117 10.3535 12.2915 10.0083 12.2915H10C9.65482 12.2915 9.375 12.0117 9.375 11.6665ZM12.7083 11.6665C12.7083 11.3213 12.9882 11.0415 13.3333 11.0415H13.3417C13.6868 11.0415 13.9667 11.3213 13.9667 11.6665C13.9667 12.0117 13.6868 12.2915 13.3417 12.2915H13.3333C12.9882 12.2915 12.7083 12.0117 12.7083 11.6665ZM6.04167 14.9998C6.04167 14.6547 6.32149 14.3748 6.66667 14.3748H6.675C7.02018 14.3748 7.3 14.6547 7.3 14.9998C7.3 15.345 7.02018 15.6248 6.675 15.6248H6.66667C6.32149 15.6248 6.04167 15.345 6.04167 14.9998ZM9.375 14.9998C9.375 14.6547 9.65482 14.3748 10 14.3748H10.0083C10.3535 14.3748 10.6333 14.6547 10.6333 14.9998C10.6333 15.345 10.3535 15.6248 10.0083 15.6248H10C9.65482 15.6248 9.375 15.345 9.375 14.9998ZM12.7083 14.9998C12.7083 14.6547 12.9882 14.3748 13.3333 14.3748H13.3417C13.6868 14.3748 13.9667 14.6547 13.9667 14.9998C13.9667 15.345 13.6868 15.6248 13.3417 15.6248H13.3333C12.9882 15.6248 12.7083 15.345 12.7083 14.9998Z" fill="#999999"/>
</g>
</svg>
