<svg width="30" height="20" viewBox="0 0 30 20" fill="none" xmlns="http://www.w3.org/2000/svg">
<path d="M29.4827 19.9999H0.517265C0.231621 19.9999 0 19.7642 0 19.4735V0.526336C0 0.235682 0.231621 0 0.517265 0H29.4827C29.7684 0 30 0.235682 30 0.526336V19.4735C29.9999 19.7643 29.7683 19.9999 29.4827 19.9999Z" fill="#F5F5F5"/>
<path d="M17.8715 5.62067C15.4948 4.00845 12.2846 4.66757 10.7012 7.08175C9.90695 8.28675 10.2298 9.92413 11.4181 10.7303C12.6055 11.5364 14.2095 11.209 15.0017 9.99979C15.794 8.79061 17.399 8.46729 18.5864 9.26919C19.7757 10.0753 20.0956 11.7127 19.3022 12.9177C20.8867 10.4995 20.2462 7.23295 17.8715 5.62067Z" fill="#FF4B55"/>
<path d="M10.7031 7.08203C9.90889 8.28704 10.2317 9.92441 11.42 10.7306C12.6074 11.5367 14.2114 11.2093 15.0037 10.0001C15.7959 8.79089 17.401 8.46757 18.5883 9.26947C19.7776 10.0756 20.0975 11.713 19.3041 12.918C17.7218 15.3405 14.5127 15.9914 12.1359 14.3791C9.76135 12.767 9.1187 9.50045 10.7031 7.08203Z" fill="#41479B"/>
<path d="M20.5063 3.63353L21.4459 5.07052C21.5248 5.19125 21.4929 5.35426 21.3745 5.43493L21.1362 5.59728C21.0173 5.67824 20.8564 5.64569 20.7771 5.52454L19.8364 4.0879C19.7572 3.96705 19.7893 3.80375 19.908 3.72308L20.1475 3.56044C20.2664 3.47965 20.4271 3.51238 20.5063 3.63353Z" fill="#464655"/>
<path d="M21.9547 5.84945L22.8973 7.28555C22.9768 7.40682 22.9443 7.57089 22.8248 7.65126L22.5855 7.81218C22.4668 7.89207 22.3069 7.85922 22.2279 7.73885L21.2858 6.30424C21.2065 6.18345 21.2383 6.02003 21.3571 5.93924L21.5958 5.77683C21.7146 5.69604 21.8753 5.72854 21.9547 5.84945Z" fill="#464655"/>
<path d="M21.5119 2.95025L23.9042 6.60342C23.9835 6.72433 23.9513 6.88769 23.8325 6.9683L23.5921 7.1313C23.4733 7.21197 23.3127 7.17924 23.2335 7.05833L20.8403 3.4054C20.7611 3.28443 20.7933 3.12094 20.9122 3.0404L21.1533 2.87709C21.2722 2.79666 21.4327 2.82934 21.5119 2.95025Z" fill="#464655"/>
<path d="M22.5129 2.26833L23.4545 3.70812C23.5338 3.82939 23.5012 3.99311 23.3817 4.07342L23.1423 4.2344C23.0235 4.31429 22.8636 4.28144 22.7846 4.16082L21.8423 2.72294C21.763 2.60203 21.7952 2.4386 21.914 2.358L22.1542 2.19511C22.273 2.11444 22.4336 2.14718 22.5129 2.26833Z" fill="#464655"/>
<path d="M23.9646 4.48846L24.9047 5.92527C24.9838 6.04606 24.9518 6.20918 24.8332 6.28985L24.5945 6.45226C24.4756 6.53316 24.3147 6.50049 24.2355 6.37934L23.2953 4.94253C23.2163 4.82174 23.2483 4.65862 23.3668 4.57795L23.6056 4.41554C23.7244 4.33463 23.8853 4.36725 23.9646 4.48846Z" fill="#464655"/>
<path d="M7.78175 12.2661L10.1738 15.9153C10.253 16.0362 10.221 16.1995 10.1022 16.2802L9.86265 16.443C9.74382 16.5237 9.58322 16.4911 9.50388 16.3701L7.11185 12.7209C7.03263 12.6 7.06463 12.4367 7.18345 12.356L7.42299 12.1932C7.54181 12.1125 7.70248 12.1452 7.78175 12.2661Z" fill="#464655"/>
<path d="M6.77569 12.9483L7.71483 14.3816C7.79399 14.5024 7.76205 14.6655 7.64352 14.7462L7.40528 14.9085C7.28651 14.9894 7.12573 14.9569 7.04633 14.836L6.10608 13.403C6.02675 13.2821 6.05874 13.1187 6.17757 13.038L6.41698 12.8753C6.53575 12.7947 6.69641 12.8273 6.77569 12.9483Z" fill="#464655"/>
<path d="M8.22717 15.1647L9.16736 16.6017C9.24647 16.7225 9.21441 16.8857 9.09576 16.9663L8.85682 17.1288C8.73793 17.2097 8.57721 17.177 8.49787 17.056L7.55709 15.6193C7.47793 15.4985 7.51004 15.3352 7.6287 15.2545L7.86823 15.0917C7.98717 15.0109 8.14789 15.0436 8.22717 15.1647Z" fill="#464655"/>
<path d="M5.77073 13.6304L8.16123 17.2798C8.24039 17.4006 8.20834 17.5638 8.08981 17.6446L7.85092 17.8071C7.73209 17.8879 7.57137 17.8554 7.49203 17.7343L5.10012 14.0854C5.02085 13.9645 5.05301 13.8011 5.17184 13.7204L5.41219 13.5574C5.5309 13.4768 5.69151 13.5095 5.77073 13.6304Z" fill="#464655"/>
<path d="M7.11177 7.28561L9.50344 3.63339C9.58272 3.51236 9.74338 3.47969 9.86227 3.56042L10.1017 3.72312C10.2205 3.80379 10.2525 3.96715 10.1733 4.088L7.78073 7.73819C7.70163 7.85881 7.54161 7.8916 7.42284 7.81159L7.1843 7.65091C7.06489 7.57054 7.03243 7.40676 7.11177 7.28561Z" fill="#464655"/>
<path d="M6.10398 6.60319L8.49607 2.95026C8.57535 2.82923 8.73613 2.79655 8.85501 2.8774L9.0939 3.03993C9.21249 3.12059 9.24449 3.28372 9.16539 3.40457L6.77394 7.05768C6.69467 7.17871 6.534 7.21144 6.41512 7.13066L6.17559 6.96795C6.05687 6.88734 6.02482 6.72404 6.10398 6.60319Z" fill="#464655"/>
<path d="M5.09997 5.92479L7.49229 2.26823C7.57157 2.14714 7.73241 2.1144 7.85129 2.19525L8.09018 2.35778C8.20877 2.43844 8.24076 2.60145 8.16178 2.7223L5.77092 6.37941C5.69176 6.5005 5.53104 6.53329 5.41216 6.45262L5.1718 6.28962C5.05304 6.20901 5.02093 6.04571 5.09997 5.92479Z" fill="#464655"/>
<path d="M19.8366 15.9153L20.7768 14.4823C20.8562 14.3613 21.017 14.3288 21.1357 14.4097L21.374 14.5721C21.4925 14.6528 21.5244 14.8159 21.4453 14.9367L20.5062 16.37C20.4269 16.491 20.2662 16.5237 20.1474 16.4429L19.908 16.2803C19.7892 16.1996 19.7572 16.0362 19.8366 15.9153Z" fill="#464655"/>
<path d="M21.2855 13.7064L22.2273 12.2663C22.3065 12.1453 22.4672 12.1125 22.5861 12.1931L22.8261 12.3559C22.9449 12.4366 22.9771 12.6001 22.8977 12.721L21.954 14.1589C21.8748 14.2795 21.7148 14.3121 21.596 14.232L21.358 14.0715C21.2388 13.9911 21.2063 13.8275 21.2855 13.7064Z" fill="#464655"/>
<path d="M20.8403 16.6014L21.7811 15.1646C21.8604 15.0437 22.021 15.0109 22.1398 15.0916L22.3803 15.2548C22.4991 15.3354 22.5312 15.4986 22.4521 15.6196L21.5118 17.0565C21.4327 17.1775 21.2722 17.2102 21.1532 17.1297L20.9121 16.9664C20.7933 16.8858 20.7611 16.7224 20.8403 16.6014Z" fill="#464655"/>
<path d="M22.2936 14.3814L23.235 12.948C23.3143 12.8273 23.4748 12.7947 23.5935 12.8753L23.8339 13.0383C23.9528 13.1189 23.9849 13.2825 23.9054 13.4034L22.9641 14.8368C22.8849 14.9575 22.7244 14.9901 22.6057 14.9096L22.3652 14.7465C22.2462 14.666 22.2142 14.5024 22.2936 14.3814Z" fill="#464655"/>
<path d="M21.8444 17.2802L22.7863 15.846C22.8654 15.7256 23.0252 15.6928 23.1439 15.7726L23.3833 15.9336C23.5028 16.014 23.5354 16.1779 23.4559 16.2991L22.5147 17.7353C22.4355 17.8562 22.2749 17.8888 22.1561 17.8083L21.9159 17.6454C21.797 17.5647 21.765 17.4011 21.8444 17.2802Z" fill="#464655"/>
<path d="M23.2953 15.0665L24.2349 13.6305C24.3142 13.5094 24.475 13.4767 24.5939 13.5576L24.8325 13.7199C24.9511 13.8006 24.9831 13.9639 24.9039 14.0847L23.9635 15.5188C23.8844 15.6395 23.7243 15.6722 23.6055 15.5921L23.3676 15.4317C23.2485 15.3513 23.2161 15.1876 23.2953 15.0665Z" fill="#464655"/>
</svg>
