<svg width="1800" height="538" viewBox="0 0 1800 538" fill="none" xmlns="http://www.w3.org/2000/svg">
<g clip-path="url(#clip0_232_3490)">
<path d="M1626.86 128.985V231.796L1537.62 180.4V77.5894L1626.86 128.985Z" stroke="white" stroke-opacity="0.6" stroke-width="0.5"/>
<path d="M1537.63 77.5894V180.4L1448.39 231.796V128.985L1537.63 77.5894Z" stroke="white" stroke-opacity="0.6" stroke-width="0.5"/>
<path d="M1626.86 231.796L1537.63 283.192L1448.39 231.796L1537.63 180.4L1626.86 231.796Z" stroke="white" stroke-opacity="0.6" stroke-width="0.5"/>
<path d="M1626.86 231.932V334.724L1537.62 283.328V180.517L1626.86 231.932Z" stroke="white" stroke-opacity="0.6" stroke-width="0.5"/>
<path d="M1537.63 180.517V283.328L1448.39 334.724V231.913L1537.63 180.517Z" stroke="white" stroke-opacity="0.6" stroke-width="0.5"/>
<path d="M1626.86 334.724L1537.63 386.12L1448.39 334.724L1537.63 283.328L1626.86 334.724Z" stroke="white" stroke-opacity="0.6" stroke-width="0.5"/>
<path d="M1805.5 437.476V540.268L1716.26 488.872V386.081L1805.5 437.476Z" stroke="white" stroke-opacity="0.6" stroke-width="0.5"/>
<path d="M1716.26 386.08V488.872L1627 540.268V437.476L1716.26 386.061V386.08Z" stroke="white" stroke-opacity="0.6" stroke-width="0.5"/>
<path d="M1805.5 540.268L1716.26 591.664L1627 540.268L1716.26 488.872L1805.5 540.268Z" stroke="white" stroke-opacity="0.6" stroke-width="0.5"/>
<path d="M1716.24 386.119V488.911L1627 437.515V334.704L1716.24 386.119Z" fill="white" fill-opacity="0.4" stroke="white" stroke-opacity="0.6" stroke-width="0.5"/>
<path d="M1627 334.704V437.515L1537.76 488.911V386.119L1627 334.704Z" stroke="white" stroke-opacity="0.6" stroke-width="0.5"/>
<path d="M1716.24 488.911L1627 540.307L1537.76 488.911L1627 437.515L1716.24 488.911Z" stroke="white" stroke-opacity="0.6" stroke-width="0.5"/>
<path d="M1627 334.704L1627.02 437.515L1537.76 386.1L1537.78 283.309L1627 334.704Z" stroke="white" stroke-opacity="0.6" stroke-width="0.5"/>
<path d="M1537.78 283.309L1537.76 386.1L1448.52 437.515L1448.54 334.704H1448.52L1537.76 283.309H1537.78Z" stroke="white" stroke-opacity="0.6" stroke-width="0.5"/>
<path d="M1627.02 437.515L1537.78 488.911L1448.52 437.515L1537.76 386.1L1627.02 437.515Z" stroke="white" stroke-opacity="0.6" stroke-width="0.5"/>
<path d="M1716.14 180.634V283.425L1626.9 232.029V129.238L1716.14 180.634Z" fill="white" fill-opacity="0.4" stroke="white" stroke-opacity="0.6" stroke-width="0.5"/>
<path d="M1626.9 129.238V232.029L1537.66 283.425V180.634L1626.9 129.238Z" stroke="white" stroke-opacity="0.6" stroke-width="0.5"/>
<path d="M1716.14 283.425L1626.9 334.821L1537.66 283.425L1626.9 232.029L1716.14 283.425Z" stroke="white" stroke-opacity="0.6" stroke-width="0.5"/>
<path d="M1629.75 132.544C1628.03 134.255 1625.27 134.255 1623.55 132.544C1621.83 130.832 1621.83 128.071 1623.55 126.379C1625.27 124.668 1628.03 124.668 1629.75 126.379C1631.46 128.09 1631.46 130.852 1629.75 132.544Z" fill="white" fill-opacity="0.6"/>
<path d="M1540.61 80.4477C1538.89 82.159 1536.12 82.159 1534.41 80.4477C1532.69 78.7365 1532.69 75.9752 1534.41 74.2639C1536.12 72.5527 1538.89 72.5527 1540.61 74.2639C1542.32 75.9752 1542.32 78.7365 1540.61 80.4477Z" fill="white" fill-opacity="0.6"/>
<path d="M1451.47 131.902C1449.75 133.613 1446.98 133.613 1445.27 131.902C1443.55 130.191 1443.55 127.429 1445.27 125.738C1446.98 124.026 1449.75 124.026 1451.47 125.738C1453.18 127.449 1453.18 130.21 1451.47 131.902Z" fill="white" fill-opacity="0.6"/>
<path d="M1540.61 183.784C1538.89 185.495 1536.12 185.495 1534.41 183.784C1532.69 182.073 1532.69 179.311 1534.41 177.619C1536.12 175.908 1538.89 175.908 1540.61 177.619C1542.32 179.331 1542.32 182.092 1540.61 183.784Z" fill="white" fill-opacity="0.6"/>
<path d="M1629.75 234.849C1628.03 236.56 1625.27 236.56 1623.55 234.849C1621.83 233.138 1621.83 230.377 1623.55 228.665C1625.27 226.954 1628.03 226.954 1629.75 228.665C1631.46 230.377 1631.46 233.138 1629.75 234.849Z" fill="white" fill-opacity="0.6"/>
<path d="M1719.2 286.614C1717.49 288.326 1714.72 288.326 1713 286.614C1711.29 284.903 1711.29 282.142 1713 280.43C1714.72 278.719 1717.49 278.739 1719.2 280.43C1720.92 282.142 1720.92 284.903 1719.2 286.614Z" fill="white" fill-opacity="0.6"/>
<path d="M1630.18 337.757C1628.46 339.469 1625.69 339.469 1623.98 337.757C1622.26 336.046 1622.26 333.285 1623.98 331.573C1625.69 329.862 1628.46 329.862 1630.18 331.573C1631.89 333.285 1631.89 336.046 1630.18 337.757Z" fill="white" fill-opacity="0.6"/>
<path d="M1540.72 286.187C1539.01 287.898 1536.24 287.898 1534.52 286.187C1532.81 284.475 1532.81 281.714 1534.52 280.003C1536.24 278.291 1539.01 278.291 1540.72 280.003C1542.44 281.714 1542.44 284.475 1540.72 286.187Z" fill="white" fill-opacity="0.6"/>
<path d="M1451.58 234.927C1449.87 236.638 1447.1 236.638 1445.38 234.927C1443.67 233.216 1443.67 230.454 1445.38 228.762C1447.1 227.051 1449.87 227.051 1451.58 228.762C1453.3 230.474 1453.3 233.235 1451.58 234.927Z" fill="white" fill-opacity="0.6"/>
<path d="M1451.49 337.738C1449.77 339.449 1447 339.449 1445.31 337.738C1443.59 336.027 1443.59 333.265 1445.31 331.554C1447.02 329.843 1449.79 329.843 1451.49 331.554C1453.2 333.265 1453.2 336.027 1451.49 337.738Z" fill="white" fill-opacity="0.6"/>
<path d="M1540.94 389.114C1539.22 390.825 1536.46 390.825 1534.74 389.114C1533.02 387.403 1533.02 384.641 1534.74 382.949C1536.46 381.238 1539.22 381.238 1540.94 382.949C1542.65 384.661 1542.65 387.422 1540.94 389.114Z" fill="white" fill-opacity="0.6"/>
<path d="M1630.08 440.568C1628.36 442.279 1625.6 442.279 1623.88 440.568C1622.16 438.857 1622.16 436.095 1623.88 434.404C1625.6 432.692 1628.36 432.692 1630.08 434.404C1631.79 436.115 1631.79 438.876 1630.08 440.568Z" fill="white" fill-opacity="0.6"/>
<path d="M1719.32 491.925C1717.6 493.636 1714.83 493.636 1713.12 491.925C1711.4 490.214 1711.4 487.452 1713.12 485.76C1714.83 484.049 1717.6 484.049 1719.32 485.76C1721.03 487.472 1721.03 490.233 1719.32 491.925Z" fill="white" fill-opacity="0.6"/>
<path d="M1719.2 389.017C1717.49 390.728 1714.72 390.728 1713 389.017C1711.29 387.306 1711.29 384.544 1713 382.833C1714.72 381.122 1717.49 381.122 1719.2 382.833C1720.92 384.544 1720.92 387.306 1719.2 389.017Z" fill="white" fill-opacity="0.6"/>
<path d="M1630.35 543.496C1628.64 545.207 1625.87 545.207 1624.15 543.496C1622.44 541.784 1622.44 539.023 1624.15 537.331C1625.87 535.62 1628.64 535.62 1630.35 537.331C1632.07 539.043 1632.07 541.804 1630.35 543.496Z" fill="white" fill-opacity="0.6"/>
<path d="M1541.02 491.964C1539.3 493.675 1536.53 493.675 1534.82 491.964C1533.1 490.253 1533.1 487.491 1534.82 485.78C1536.53 484.069 1539.3 484.069 1541.02 485.78C1542.73 487.491 1542.73 490.253 1541.02 491.964Z" fill="white" fill-opacity="0.6"/>
<path d="M1451.58 440.549C1449.87 442.26 1447.1 442.26 1445.38 440.549C1443.67 438.838 1443.67 436.076 1445.38 434.385C1447.1 432.673 1449.87 432.673 1451.58 434.385C1453.3 436.096 1453.3 438.857 1451.58 440.549Z" fill="white" fill-opacity="0.6"/>
<path d="M1719.28 183.628C1717.56 185.34 1714.79 185.34 1713.08 183.628C1711.36 181.917 1711.36 179.156 1713.08 177.464C1714.79 175.753 1717.56 175.753 1719.28 177.464C1720.99 179.175 1720.99 181.937 1719.28 183.628Z" fill="white" fill-opacity="0.6"/>
</g>
<g clip-path="url(#clip1_232_3490)">
<path d="M1197.14 334.015L1197.14 231.204L1286.38 282.6L1286.38 385.411L1197.14 334.015Z" stroke="white" stroke-opacity="0.6" stroke-width="0.5"/>
<path d="M1286.37 385.411L1286.37 282.6L1375.61 231.204L1375.61 334.015L1286.37 385.411Z" stroke="white" stroke-opacity="0.6" stroke-width="0.5"/>
<path d="M1197.14 231.204L1286.37 179.808L1375.61 231.204L1286.37 282.6L1197.14 231.204Z" stroke="white" stroke-opacity="0.6" stroke-width="0.5"/>
<path d="M1197.14 231.068L1197.14 128.276L1286.38 179.672L1286.38 282.483L1197.14 231.068Z" stroke="white" stroke-opacity="0.6" stroke-width="0.5"/>
<path d="M1286.37 282.483L1286.37 179.672L1375.61 128.276L1375.61 231.087L1286.37 282.483Z" stroke="white" stroke-opacity="0.6" stroke-width="0.5"/>
<path d="M1197.14 128.277L1286.37 76.8808L1375.61 128.277L1286.37 179.672L1197.14 128.277Z" stroke="white" stroke-opacity="0.6" stroke-width="0.5"/>
<path d="M1018.5 25.5237L1018.5 -77.2678L1107.74 -25.8721L1107.74 76.9194L1018.5 25.5237Z" stroke="white" stroke-opacity="0.6" stroke-width="0.5"/>
<path d="M1107.74 76.9195L1107.74 -25.872L1197 -77.2677L1197 25.5238L1107.74 76.939L1107.74 76.9195Z" stroke="white" stroke-opacity="0.6" stroke-width="0.5"/>
<path d="M1107.76 76.8807L1107.76 -25.9108L1197 25.4849L1197 128.296L1107.76 76.8807Z" stroke="white" stroke-opacity="0.6" stroke-width="0.5"/>
<path d="M1197 128.296L1197 25.4849L1286.24 -25.9108L1286.24 76.8807L1197 128.296Z" stroke="white" stroke-opacity="0.6" stroke-width="0.5"/>
<path d="M1107.76 -25.9109L1197 -77.3067L1286.24 -25.9109L1197 25.4849L1107.76 -25.9109Z" stroke="white" stroke-opacity="0.6" stroke-width="0.5"/>
<path d="M1197 128.296L1196.98 25.4847L1286.24 76.8999L1286.22 179.691L1197 128.296Z" stroke="white" stroke-opacity="0.6" stroke-width="0.5"/>
<path d="M1286.22 179.691L1286.24 76.8999L1375.48 25.4847L1375.46 128.296L1375.48 128.296L1286.24 179.691L1286.22 179.691Z" stroke="white" stroke-opacity="0.6" stroke-width="0.5"/>
<path d="M1196.98 25.4847L1286.22 -25.9111L1375.48 25.4847L1286.24 76.8999L1196.98 25.4847Z" stroke="white" stroke-opacity="0.6" stroke-width="0.5"/>
<path d="M1107.86 282.366L1107.86 179.575L1197.1 230.971L1197.1 333.762L1107.86 282.366Z" stroke="white" stroke-opacity="0.6" stroke-width="0.5"/>
<path d="M1197.1 333.762L1197.1 230.971L1286.34 179.575L1286.34 282.366L1197.1 333.762Z" stroke="white" stroke-opacity="0.6" stroke-width="0.5"/>
<path d="M1107.86 179.575L1197.1 128.179L1286.34 179.575L1197.1 230.971L1107.86 179.575Z" stroke="white" stroke-opacity="0.6" stroke-width="0.5"/>
<path d="M1194.25 330.456C1195.97 328.745 1198.73 328.745 1200.45 330.456C1202.17 332.168 1202.17 334.929 1200.45 336.621C1198.73 338.332 1195.97 338.332 1194.25 336.621C1192.54 334.91 1192.54 332.148 1194.25 330.456Z" fill="white" fill-opacity="0.6"/>
<path d="M1283.39 382.552C1285.11 380.841 1287.88 380.841 1289.59 382.552C1291.31 384.264 1291.31 387.025 1289.59 388.736C1287.88 390.447 1285.11 390.447 1283.39 388.736C1281.68 387.025 1281.68 384.264 1283.39 382.552Z" fill="white" fill-opacity="0.6"/>
<path d="M1372.53 331.098C1374.25 329.387 1377.02 329.387 1378.73 331.098C1380.45 332.809 1380.45 335.571 1378.73 337.262C1377.02 338.974 1374.25 338.974 1372.53 337.262C1370.82 335.551 1370.82 332.79 1372.53 331.098Z" fill="white" fill-opacity="0.6"/>
<path d="M1283.39 279.216C1285.11 277.505 1287.88 277.505 1289.59 279.216C1291.31 280.927 1291.31 283.689 1289.59 285.381C1287.88 287.092 1285.11 287.092 1283.39 285.381C1281.68 283.669 1281.68 280.908 1283.39 279.216Z" fill="white" fill-opacity="0.6"/>
<path d="M1194.25 228.151C1195.97 226.44 1198.73 226.44 1200.45 228.151C1202.17 229.862 1202.17 232.623 1200.45 234.335C1198.73 236.046 1195.97 236.046 1194.25 234.335C1192.54 232.623 1192.54 229.862 1194.25 228.151Z" fill="white" fill-opacity="0.6"/>
<path d="M1104.8 176.386C1106.51 174.674 1109.28 174.674 1111 176.386C1112.71 178.097 1112.71 180.858 1111 182.57C1109.28 184.281 1106.51 184.261 1104.8 182.57C1103.08 180.858 1103.08 178.097 1104.8 176.386Z" fill="white" fill-opacity="0.6"/>
<path d="M1193.82 125.243C1195.54 123.531 1198.31 123.531 1200.02 125.243C1201.74 126.954 1201.74 129.715 1200.02 131.427C1198.31 133.138 1195.54 133.138 1193.82 131.427C1192.11 129.715 1192.11 126.954 1193.82 125.243Z" fill="white" fill-opacity="0.6"/>
<path d="M1283.28 176.813C1284.99 175.102 1287.76 175.102 1289.48 176.814C1291.19 178.525 1291.19 181.286 1289.48 182.997C1287.76 184.709 1284.99 184.709 1283.28 182.997C1281.56 181.286 1281.56 178.525 1283.28 176.813Z" fill="white" fill-opacity="0.6"/>
<path d="M1372.42 228.073C1374.13 226.362 1376.9 226.362 1378.62 228.073C1380.33 229.784 1380.33 232.546 1378.62 234.238C1376.9 235.949 1374.13 235.949 1372.42 234.238C1370.7 232.526 1370.7 229.765 1372.42 228.073Z" fill="white" fill-opacity="0.6"/>
<path d="M1372.51 125.262C1374.23 123.551 1377 123.551 1378.69 125.262C1380.41 126.973 1380.41 129.735 1378.69 131.446C1376.98 133.157 1374.21 133.157 1372.51 131.446C1370.8 129.735 1370.8 126.973 1372.51 125.262Z" fill="white" fill-opacity="0.6"/>
<path d="M1283.06 73.8862C1284.78 72.1749 1287.54 72.1749 1289.26 73.8862C1290.98 75.5974 1290.98 78.3587 1289.26 80.0505C1287.54 81.7618 1284.78 81.7618 1283.06 80.0505C1281.35 78.3393 1281.35 75.578 1283.06 73.8862Z" fill="white" fill-opacity="0.6"/>
<path d="M1193.92 22.4321C1195.64 20.7208 1198.4 20.7208 1200.12 22.4321C1201.84 24.1433 1201.84 26.9046 1200.12 28.5964C1198.4 30.3077 1195.64 30.3077 1193.92 28.5964C1192.21 26.8852 1192.21 24.1239 1193.92 22.4321Z" fill="white" fill-opacity="0.6"/>
<path d="M1104.8 73.9834C1106.51 72.2722 1109.28 72.2722 1111 73.9834C1112.71 75.6947 1112.71 78.456 1111 80.1672C1109.28 81.8785 1106.51 81.8785 1104.8 80.1672C1103.08 78.456 1103.08 75.6947 1104.8 73.9834Z" fill="white" fill-opacity="0.6"/>
<path d="M1015.29 22.4511C1017 20.7399 1019.77 20.7399 1021.48 22.4511C1023.2 24.1624 1023.2 26.9237 1021.48 28.6155C1019.77 30.3267 1017 30.3267 1015.29 28.6155C1013.57 26.9042 1013.57 24.1429 1015.29 22.4511Z" fill="white" fill-opacity="0.6"/>
<path d="M1372.42 22.4511C1374.13 20.7399 1376.9 20.7399 1378.62 22.4511C1380.33 24.1624 1380.33 26.9237 1378.62 28.6155C1376.9 30.3267 1374.13 30.3267 1372.42 28.6155C1370.7 26.9042 1370.7 24.1429 1372.42 22.4511Z" fill="white" fill-opacity="0.6"/>
<path d="M1104.72 279.372C1106.44 277.66 1109.21 277.66 1110.92 279.372C1112.64 281.083 1112.64 283.844 1110.92 285.536C1109.21 287.247 1106.44 287.247 1104.72 285.536C1103.01 283.825 1103.01 281.063 1104.72 279.372Z" fill="white" fill-opacity="0.6"/>
</g>
<defs>
<clipPath id="clip0_232_3490">
<rect width="356" height="465" fill="white" transform="translate(1444 73)"/>
</clipPath>
<clipPath id="clip1_232_3490">
<rect width="366" height="390" fill="white" transform="translate(1380 390) rotate(-180)"/>
</clipPath>
</defs>
</svg>
