<svg width="248" height="227" viewBox="0 0 248 227" fill="none" xmlns="http://www.w3.org/2000/svg">
<g clip-path="url(#clip0_197_4422)">
<path d="M190.836 81.5786V113.592L163.049 97.5885V65.5747L190.836 81.5786Z" stroke="white" stroke-opacity="0.6" stroke-width="0.5"/>
<path d="M163.047 65.5747V97.5885L135.26 113.592V81.5786L163.047 65.5747Z" stroke="white" stroke-opacity="0.6" stroke-width="0.5"/>
<path d="M190.835 113.592L163.047 129.596L135.26 113.592L163.047 97.5884L190.835 113.592Z" stroke="white" stroke-opacity="0.6" stroke-width="0.5"/>
<path d="M190.836 113.634V145.642L163.049 129.638V97.6245L190.836 113.634Z" stroke="white" stroke-opacity="0.6" stroke-width="0.5"/>
<path d="M163.047 97.6245V129.638L135.26 145.642V113.628L163.047 97.6245Z" stroke="white" stroke-opacity="0.6" stroke-width="0.5"/>
<path d="M190.835 145.643L163.047 161.646L135.26 145.643L163.047 129.639L190.835 145.643Z" stroke="white" stroke-opacity="0.6" stroke-width="0.5"/>
<path d="M246.46 177.638V209.646L218.672 193.642V161.634L246.46 177.638Z" stroke="white" stroke-opacity="0.6" stroke-width="0.5"/>
<path d="M218.673 161.634V193.642L190.879 209.646V177.638L218.673 161.628V161.634Z" stroke="white" stroke-opacity="0.6" stroke-width="0.5"/>
<path d="M246.46 209.646L218.673 225.65L190.879 209.646L218.673 193.642L246.46 209.646Z" stroke="white" stroke-opacity="0.6" stroke-width="0.5"/>
<path d="M218.667 161.646V193.654L190.879 177.65V145.636L218.667 161.646Z" fill="white" fill-opacity="0.4" stroke="white" stroke-opacity="0.6" stroke-width="0.5"/>
<path d="M190.878 145.636V177.65L163.09 193.654V161.646L190.878 145.636Z" stroke="white" stroke-opacity="0.6" stroke-width="0.5"/>
<path d="M218.665 193.654L190.878 209.658L163.09 193.654L190.878 177.65L218.665 193.654Z" stroke="white" stroke-opacity="0.6" stroke-width="0.5"/>
<path d="M190.878 145.636L190.884 177.65L163.09 161.64L163.096 129.632L190.878 145.636Z" stroke="white" stroke-opacity="0.6" stroke-width="0.5"/>
<path d="M163.096 129.632L163.09 161.64L135.303 177.65L135.309 145.636H135.303L163.09 129.632H163.096Z" stroke="white" stroke-opacity="0.6" stroke-width="0.5"/>
<path d="M190.884 177.65L163.096 193.654L135.303 177.65L163.09 161.64L190.884 177.65Z" stroke="white" stroke-opacity="0.6" stroke-width="0.5"/>
<path d="M218.635 97.6611V129.669L190.848 113.665V81.6572L218.635 97.6611Z" fill="white" fill-opacity="0.4" stroke="white" stroke-opacity="0.6" stroke-width="0.5"/>
<path d="M190.848 81.6572V113.665L163.061 129.669V97.6611L190.848 81.6572Z" stroke="white" stroke-opacity="0.6" stroke-width="0.5"/>
<path d="M218.636 129.669L190.848 145.673L163.061 129.669L190.848 113.665L218.636 129.669Z" stroke="white" stroke-opacity="0.6" stroke-width="0.5"/>
<path d="M191.733 82.6863C191.199 83.2192 190.337 83.2192 189.803 82.6863C189.269 82.1535 189.269 81.2936 189.803 80.7668C190.337 80.234 191.199 80.234 191.733 80.7668C192.267 81.2997 192.267 82.1595 191.733 82.6863Z" fill="white" fill-opacity="0.6"/>
<path d="M163.977 66.4648C163.443 66.9977 162.581 66.9977 162.047 66.4648C161.513 65.932 161.513 65.0721 162.047 64.5393C162.581 64.0064 163.443 64.0064 163.977 64.5393C164.511 65.0721 164.511 65.932 163.977 66.4648Z" fill="white" fill-opacity="0.6"/>
<path d="M136.219 82.4866C135.685 83.0195 134.823 83.0195 134.289 82.4866C133.755 81.9538 133.755 81.0939 134.289 80.5671C134.823 80.0343 135.685 80.0343 136.219 80.5671C136.754 81.1 136.754 81.9598 136.219 82.4866Z" fill="white" fill-opacity="0.6"/>
<path d="M163.977 98.6419C163.443 99.1748 162.581 99.1748 162.047 98.6419C161.513 98.109 161.513 97.2492 162.047 96.7224C162.581 96.1895 163.443 96.1895 163.977 96.7224C164.511 97.2553 164.511 98.1151 163.977 98.6419Z" fill="white" fill-opacity="0.6"/>
<path d="M191.733 114.543C191.199 115.076 190.337 115.076 189.803 114.543C189.269 114.01 189.269 113.15 189.803 112.617C190.337 112.085 191.199 112.085 191.733 112.617C192.267 113.15 192.267 114.01 191.733 114.543Z" fill="white" fill-opacity="0.6"/>
<path d="M219.589 130.662C219.054 131.195 218.193 131.195 217.658 130.662C217.124 130.129 217.124 129.269 217.658 128.736C218.193 128.203 219.054 128.209 219.589 128.736C220.123 129.269 220.123 130.129 219.589 130.662Z" fill="white" fill-opacity="0.6"/>
<path d="M191.868 146.587C191.334 147.12 190.472 147.12 189.938 146.587C189.404 146.054 189.404 145.194 189.938 144.661C190.472 144.129 191.334 144.129 191.868 144.661C192.402 145.194 192.402 146.054 191.868 146.587Z" fill="white" fill-opacity="0.6"/>
<path d="M164.012 130.529C163.478 131.062 162.616 131.062 162.082 130.529C161.548 129.996 161.548 129.136 162.082 128.603C162.616 128.07 163.478 128.07 164.012 128.603C164.547 129.136 164.547 129.996 164.012 130.529Z" fill="white" fill-opacity="0.6"/>
<path d="M136.257 114.567C135.722 115.1 134.861 115.1 134.326 114.567C133.792 114.034 133.792 113.174 134.326 112.648C134.861 112.115 135.722 112.115 136.257 112.648C136.791 113.181 136.791 114.04 136.257 114.567Z" fill="white" fill-opacity="0.6"/>
<path d="M136.225 146.581C135.691 147.114 134.829 147.114 134.301 146.581C133.767 146.048 133.767 145.188 134.301 144.656C134.835 144.123 135.697 144.123 136.225 144.656C136.759 145.188 136.759 146.048 136.225 146.581Z" fill="white" fill-opacity="0.6"/>
<path d="M164.079 162.579C163.545 163.112 162.683 163.112 162.149 162.579C161.615 162.046 161.615 161.186 162.149 160.659C162.683 160.127 163.545 160.127 164.079 160.659C164.613 161.192 164.613 162.052 164.079 162.579Z" fill="white" fill-opacity="0.6"/>
<path d="M191.837 178.601C191.303 179.134 190.441 179.134 189.906 178.601C189.372 178.068 189.372 177.208 189.906 176.681C190.441 176.149 191.303 176.149 191.837 176.681C192.371 177.214 192.371 178.074 191.837 178.601Z" fill="white" fill-opacity="0.6"/>
<path d="M219.624 194.593C219.09 195.125 218.228 195.125 217.694 194.593C217.159 194.06 217.159 193.2 217.694 192.673C218.228 192.14 219.09 192.14 219.624 192.673C220.158 193.206 220.158 194.066 219.624 194.593Z" fill="white" fill-opacity="0.6"/>
<path d="M247.352 210.651C246.818 211.184 245.956 211.184 245.422 210.651C244.888 210.118 244.888 209.258 245.422 208.732C245.956 208.199 246.818 208.199 247.352 208.732C247.886 209.265 247.886 210.124 247.352 210.651Z" fill="white" fill-opacity="0.6"/>
<path d="M219.589 162.549C219.054 163.082 218.193 163.082 217.658 162.549C217.124 162.016 217.124 161.156 217.658 160.623C218.193 160.09 219.054 160.09 219.589 160.623C220.123 161.156 220.123 162.016 219.589 162.549Z" fill="white" fill-opacity="0.6"/>
<path d="M247.462 178.595C246.928 179.128 246.066 179.128 245.531 178.595C244.997 178.062 244.997 177.202 245.531 176.676C246.066 176.143 246.928 176.143 247.462 176.676C247.996 177.208 247.996 178.068 247.462 178.595Z" fill="white" fill-opacity="0.6"/>
<path d="M219.589 226.606C219.054 227.139 218.193 227.139 217.658 226.606C217.124 226.073 217.124 225.214 217.658 224.687C218.193 224.154 219.054 224.154 219.589 224.687C220.123 225.22 220.123 226.079 219.589 226.606Z" fill="white" fill-opacity="0.6"/>
<path d="M191.923 210.651C191.388 211.184 190.527 211.184 189.992 210.651C189.458 210.118 189.458 209.258 189.992 208.732C190.527 208.199 191.388 208.199 191.923 208.732C192.457 209.265 192.457 210.124 191.923 210.651Z" fill="white" fill-opacity="0.6"/>
<path d="M164.104 194.604C163.57 195.137 162.708 195.137 162.174 194.604C161.64 194.072 161.64 193.212 162.174 192.679C162.708 192.146 163.57 192.146 164.104 192.679C164.638 193.212 164.638 194.072 164.104 194.604Z" fill="white" fill-opacity="0.6"/>
<path d="M136.257 178.595C135.722 179.128 134.861 179.128 134.326 178.595C133.792 178.062 133.792 177.202 134.326 176.676C134.861 176.143 135.722 176.143 136.257 176.676C136.791 177.208 136.791 178.068 136.257 178.595Z" fill="white" fill-opacity="0.6"/>
<path d="M219.612 98.5936C219.078 99.1264 218.216 99.1264 217.682 98.5936C217.148 98.0607 217.148 97.2009 217.682 96.6741C218.216 96.1412 219.078 96.1412 219.612 96.6741C220.146 97.2069 220.146 98.0668 219.612 98.5936Z" fill="white" fill-opacity="0.6"/>
</g>
<g clip-path="url(#clip1_197_4422)">
<path d="M57.0248 145.421L57.0248 113.408L84.8125 129.411L84.8125 161.425L57.0248 145.421Z" stroke="white" stroke-opacity="0.6" stroke-width="0.5"/>
<path d="M84.8139 161.425L84.8139 129.411L112.602 113.408L112.602 145.421L84.8139 161.425Z" stroke="white" stroke-opacity="0.6" stroke-width="0.5"/>
<path d="M57.0262 113.408L84.8139 97.4038L112.602 113.408L84.8139 129.412L57.0262 113.408Z" stroke="white" stroke-opacity="0.6" stroke-width="0.5"/>
<path d="M57.0248 113.365L57.0248 81.3573L84.8125 97.3612L84.8125 129.375L57.0248 113.365Z" stroke="white" stroke-opacity="0.6" stroke-width="0.5"/>
<path d="M84.8139 129.375L84.8139 97.3617L112.602 81.3578L112.602 113.372L84.8139 129.375Z" stroke="white" stroke-opacity="0.6" stroke-width="0.5"/>
<path d="M57.0262 81.3574L84.8139 65.3536L112.602 81.3574L84.8139 97.3613L57.0262 81.3574Z" stroke="white" stroke-opacity="0.6" stroke-width="0.5"/>
<path d="M1.40179 49.3618L1.4018 17.3541L29.1895 33.358L29.1895 65.3657L1.40179 49.3618Z" stroke="white" stroke-opacity="0.6" stroke-width="0.5"/>
<path d="M29.1887 65.366L29.1887 33.3582L56.9824 17.3544L56.9824 49.3621L29.1887 65.3721L29.1887 65.366Z" stroke="white" stroke-opacity="0.6" stroke-width="0.5"/>
<path d="M1.40103 17.354L29.1887 1.35014L56.9824 17.354L29.1887 33.3579L1.40103 17.354Z" stroke="white" stroke-opacity="0.6" stroke-width="0.5"/>
<path d="M29.1948 65.3538L29.1948 33.3461L56.9824 49.3499L56.9824 81.3638L29.1948 65.3538Z" stroke="white" stroke-opacity="0.6" stroke-width="0.5"/>
<path d="M56.9838 81.3638L56.9838 49.3499L84.7715 33.3461L84.7715 65.3538L56.9838 81.3638Z" stroke="white" stroke-opacity="0.6" stroke-width="0.5"/>
<path d="M29.1962 33.3457L56.9838 17.3418L84.7715 33.3457L56.9838 49.3496L29.1962 33.3457Z" stroke="white" stroke-opacity="0.6" stroke-width="0.5"/>
<path d="M56.9838 81.3638L56.9778 49.35L84.7715 65.3599L84.7654 97.3677L56.9838 81.3638Z" stroke="white" stroke-opacity="0.6" stroke-width="0.5"/>
<path d="M84.7649 97.3677L84.7709 65.3599L112.559 49.35L112.553 81.3638L112.559 81.3638L84.7709 97.3677L84.7649 97.3677Z" stroke="white" stroke-opacity="0.6" stroke-width="0.5"/>
<path d="M56.9772 49.3499L84.7649 33.346L112.559 49.3499L84.7709 65.3599L56.9772 49.3499Z" stroke="white" stroke-opacity="0.6" stroke-width="0.5"/>
<path d="M29.226 129.339L29.226 97.3311L57.0137 113.335L57.0137 145.343L29.226 129.339Z" stroke="white" stroke-opacity="0.6" stroke-width="0.5"/>
<path d="M57.0131 145.343L57.0131 113.335L84.8008 97.3311L84.8008 129.339L57.0131 145.343Z" stroke="white" stroke-opacity="0.6" stroke-width="0.5"/>
<path d="M29.2255 97.3311L57.0131 81.3272L84.8008 97.3311L57.0131 113.335L29.2255 97.3311Z" stroke="white" stroke-opacity="0.6" stroke-width="0.5"/>
<path d="M56.1282 144.314C56.6623 143.781 57.5242 143.781 58.0584 144.314C58.5925 144.847 58.5925 145.706 58.0584 146.233C57.5242 146.766 56.6623 146.766 56.1282 146.233C55.594 145.7 55.594 144.84 56.1282 144.314Z" fill="white" fill-opacity="0.6"/>
<path d="M83.884 160.535C84.4182 160.002 85.2801 160.002 85.8142 160.535C86.3484 161.068 86.3484 161.928 85.8142 162.461C85.2801 162.994 84.4182 162.994 83.884 162.461C83.3499 161.928 83.3499 161.068 83.884 160.535Z" fill="white" fill-opacity="0.6"/>
<path d="M111.642 144.513C112.176 143.981 113.038 143.981 113.572 144.513C114.106 145.046 114.106 145.906 113.572 146.433C113.038 146.966 112.176 146.966 111.642 146.433C111.108 145.9 111.108 145.04 111.642 144.513Z" fill="white" fill-opacity="0.6"/>
<path d="M83.884 128.358C84.4182 127.825 85.2801 127.825 85.8142 128.358C86.3484 128.891 86.3484 129.751 85.8142 130.278C85.2801 130.81 84.4182 130.81 83.884 130.278C83.3499 129.745 83.3499 128.885 83.884 128.358Z" fill="white" fill-opacity="0.6"/>
<path d="M56.1282 112.457C56.6623 111.924 57.5242 111.924 58.0584 112.457C58.5925 112.99 58.5925 113.85 58.0584 114.383C57.5242 114.915 56.6623 114.915 56.1282 114.383C55.594 113.85 55.594 112.99 56.1282 112.457Z" fill="white" fill-opacity="0.6"/>
<path d="M28.2727 96.3382C28.8069 95.8053 29.6688 95.8053 30.2029 96.3382C30.7371 96.8711 30.7371 97.7309 30.2029 98.2638C29.6688 98.7966 28.8069 98.7906 28.2727 98.2638C27.7386 97.7309 27.7386 96.8711 28.2727 96.3382Z" fill="white" fill-opacity="0.6"/>
<path d="M55.9934 80.4131C56.5276 79.8802 57.3895 79.8802 57.9236 80.4131C58.4578 80.9459 58.4578 81.8058 57.9236 82.3386C57.3895 82.8715 56.5276 82.8715 55.9934 82.3386C55.4593 81.8058 55.4593 80.9459 55.9934 80.4131Z" fill="white" fill-opacity="0.6"/>
<path d="M83.8489 96.4712C84.383 95.9383 85.2449 95.9383 85.7791 96.4712C86.3132 97.004 86.3132 97.8639 85.7791 98.3967C85.2449 98.9296 84.383 98.9296 83.8489 98.3967C83.3147 97.8639 83.3147 97.004 83.8489 96.4712Z" fill="white" fill-opacity="0.6"/>
<path d="M111.605 112.433C112.139 111.9 113.001 111.9 113.535 112.433C114.069 112.966 114.069 113.826 113.535 114.352C113.001 114.885 112.139 114.885 111.605 114.352C111.071 113.819 111.071 112.96 111.605 112.433Z" fill="white" fill-opacity="0.6"/>
<path d="M111.636 80.4189C112.17 79.8861 113.032 79.8861 113.56 80.4189C114.094 80.9518 114.094 81.8116 113.56 82.3445C113.026 82.8774 112.164 82.8774 111.636 82.3445C111.102 81.8116 111.102 80.9518 111.636 80.4189Z" fill="white" fill-opacity="0.6"/>
<path d="M83.7825 64.4211C84.3166 63.8882 85.1785 63.8882 85.7127 64.4211C86.2468 64.954 86.2468 65.8138 85.7127 66.3406C85.1785 66.8734 84.3166 66.8734 83.7825 66.3406C83.2483 65.8077 83.2483 64.9479 83.7825 64.4211Z" fill="white" fill-opacity="0.6"/>
<path d="M56.0247 48.3991C56.5588 47.8663 57.4207 47.8663 57.9549 48.3991C58.489 48.932 58.489 49.7918 57.9549 50.3186C57.4207 50.8515 56.5588 50.8515 56.0247 50.3186C55.4905 49.7858 55.4905 48.9259 56.0247 48.3991Z" fill="white" fill-opacity="0.6"/>
<path d="M28.2375 32.4074C28.7717 31.8746 29.6336 31.8746 30.1678 32.4074C30.7019 32.9403 30.7019 33.8001 30.1678 34.3269C29.6336 34.8598 28.7717 34.8598 28.2375 34.3269C27.7034 33.7941 27.7034 32.9342 28.2375 32.4074Z" fill="white" fill-opacity="0.6"/>
<path d="M0.509035 16.3488C1.04318 15.816 1.90509 15.816 2.43924 16.3488C2.97338 16.8817 2.97338 17.7415 2.43924 18.2683C1.90509 18.8012 1.04318 18.8012 0.509035 18.2683C-0.0251097 17.7355 -0.0251096 16.8756 0.509035 16.3488Z" fill="white" fill-opacity="0.6"/>
<path d="M28.2727 64.4517C28.8069 63.9188 29.6688 63.9188 30.2029 64.4517C30.7371 64.9845 30.7371 65.8444 30.2029 66.3772C29.6688 66.9101 28.8069 66.9101 28.2727 66.3772C27.7386 65.8444 27.7386 64.9845 28.2727 64.4517Z" fill="white" fill-opacity="0.6"/>
<path d="M0.399651 48.405C0.933796 47.8721 1.79572 47.8721 2.32986 48.405C2.86401 48.9378 2.86401 49.7977 2.32986 50.3245C1.79572 50.8573 0.933795 50.8573 0.399651 50.3245C-0.134494 49.7916 -0.134494 48.9318 0.399651 48.405Z" fill="white" fill-opacity="0.6"/>
<path d="M28.2727 0.39376C28.8069 -0.139097 29.6688 -0.139097 30.2029 0.393761C30.7371 0.926618 30.7371 1.78645 30.2029 2.31325C29.6688 2.8461 28.8069 2.8461 28.2727 2.31325C27.7386 1.78039 27.7386 0.920562 28.2727 0.39376Z" fill="white" fill-opacity="0.6"/>
<path d="M55.9387 16.3488C56.4729 15.816 57.3348 15.816 57.8689 16.3488C58.4031 16.8817 58.4031 17.7415 57.8689 18.2683C57.3348 18.8012 56.4729 18.8012 55.9387 18.2683C55.4046 17.7355 55.4046 16.8756 55.9387 16.3488Z" fill="white" fill-opacity="0.6"/>
<path d="M83.7571 32.3955C84.2912 31.8627 85.1531 31.8627 85.6873 32.3955C86.2214 32.9284 86.2214 33.7882 85.6873 34.3211C85.1531 34.8539 84.2912 34.8539 83.7571 34.3211C83.2229 33.7882 83.2229 32.9284 83.7571 32.3955Z" fill="white" fill-opacity="0.6"/>
<path d="M111.605 48.405C112.139 47.8721 113.001 47.8721 113.535 48.405C114.069 48.9378 114.069 49.7977 113.535 50.3245C113.001 50.8573 112.139 50.8573 111.605 50.3245C111.071 49.7916 111.071 48.9318 111.605 48.405Z" fill="white" fill-opacity="0.6"/>
<path d="M28.2493 128.406C28.7834 127.874 29.6453 127.874 30.1795 128.406C30.7136 128.939 30.7136 129.799 30.1795 130.326C29.6453 130.859 28.7834 130.859 28.2493 130.326C27.7151 129.793 27.7151 128.933 28.2493 128.406Z" fill="white" fill-opacity="0.6"/>
</g>
<defs>
<clipPath id="clip0_197_4422">
<rect width="113.967" height="162.855" fill="white" transform="translate(133.895 64.1455)"/>
</clipPath>
<clipPath id="clip1_197_4422">
<rect width="113.967" height="162.855" fill="white" transform="translate(113.967 162.854) rotate(-180)"/>
</clipPath>
</defs>
</svg>
